<svg width="20" height="18" viewBox="0 0 20 18" fill="none" xmlns="http://www.w3.org/2000/svg">
<path d="M20 8.57393V9.12081C19.9927 9.13123 19.9802 9.14112 19.9781 9.15258C19.8406 9.92862 19.3688 10.4062 18.6583 10.712C14.6965 12.4133 10.7382 14.1219 6.78333 15.8375C5.46563 16.4067 4.15104 16.9833 2.82969 17.5416C1.70573 18.0161 0.46875 17.4521 0.0994792 16.3114C0.0614583 16.1979 0.0328125 16.0755 0 15.9573V15.4104C0.078125 15.1916 0.132292 14.9609 0.238542 14.7567C1.07188 13.1595 1.91111 11.5672 2.75625 9.97966C2.78121 9.94179 2.81353 9.90932 2.85129 9.88417C2.88905 9.85903 2.93147 9.84174 2.97604 9.83331C3.25156 9.78852 3.53125 9.76977 3.80938 9.73748C6.06354 9.47845 8.31754 9.21803 10.5714 8.95623C10.812 8.92862 11.0516 8.89581 11.2911 8.86508C11.0347 8.79959 10.7735 8.75448 10.5099 8.73018C9.30851 8.5913 8.10695 8.45397 6.90521 8.31821C5.61354 8.16977 4.3224 8.01612 3.02969 7.8755C2.96382 7.87415 2.89975 7.85376 2.84522 7.81679C2.79069 7.77982 2.74803 7.72785 2.7224 7.66716C2.02448 6.33123 1.31615 4.99894 0.616667 3.66456C0.380208 3.21873 0.110417 2.78696 0 2.28487V1.738C0.0116302 1.7222 0.0206024 1.70461 0.0265625 1.68591C0.215625 0.441643 1.56563 -0.41044 2.9625 0.204664C6.28021 1.663 9.61615 3.08539 12.9448 4.52289C14.8892 5.36282 16.8337 6.20328 18.7781 7.04425C19.3938 7.30935 19.7885 7.75831 19.9526 8.40935C19.9661 8.46456 19.9839 8.51925 20 8.57393Z" fill="#779BFF"/>
</svg>
