<svg width="25" height="20" viewBox="0 0 25 20" fill="none" xmlns="http://www.w3.org/2000/svg">
<path d="M24.5957 5.70213C24.5957 9.70213 24.5957 13.7021 24.5957 17.617C24.5957 17.617 24.5957 17.617 24.5957 17.7021C24.2553 19.1489 23.234 20 21.7872 20C15.4894 20 9.19149 20 2.89362 20C2.7234 20 2.46809 20 2.29787 20C0.93617 19.7447 0 18.6383 0 17.2766C0 13.617 0 9.87234 0 6.21277C0 4.51064 1.19149 3.40426 2.80851 3.31915C3.74468 3.31915 4.76596 3.31915 5.70213 3.31915C5.78723 3.31915 5.87234 3.31915 5.95745 3.31915C5.95745 3.06383 5.95745 2.80851 5.95745 2.46809C6.04255 1.02128 7.06383 0 8.59575 0C11.0638 0 13.5319 0 16.0851 0C16.3404 0 16.5957 0 16.766 0.0851064C17.8723 0.425532 18.5532 1.2766 18.5532 2.46809C18.5532 2.7234 18.5532 3.06383 18.5532 3.31915C18.6383 3.31915 18.8085 3.31915 18.8936 3.31915C19.9149 3.31915 21.0213 3.31915 22.0426 3.31915C23.1489 3.31915 24.1702 4.17021 24.5106 5.2766C24.5106 5.44681 24.5106 5.53191 24.5957 5.70213ZM12.2553 17.7021C15.5745 17.7021 18.2979 14.9787 18.2128 11.6596C18.2128 8.34043 15.4894 5.61702 12.1702 5.70213C8.85106 5.70213 6.12766 8.42553 6.12766 11.7447C6.29787 14.9787 9.02128 17.7021 12.2553 17.7021Z" fill="white"/>
<path d="M16.2552 11.6596C16.2552 13.8723 14.468 15.6596 12.2552 15.5745C10.0425 15.5745 8.34033 13.7872 8.34033 11.5745C8.34033 9.3617 10.1276 7.57446 12.3403 7.57446C14.468 7.74468 16.2552 9.53191 16.2552 11.6596Z" fill="white"/>
</svg>
