<svg width="111" height="96" viewBox="0 0 111 96" fill="none" xmlns="http://www.w3.org/2000/svg">
<g clip-path="url(#clip0_149_2838)">
<path d="M82.3661 14.2874C85.8729 12.4401 89.3797 10.6506 93.0893 9.23627C98.306 7.27355 103.697 6.03242 109.232 5.42629C110.073 5.3397 110.594 5.62833 111 6.26333C111 6.60969 111 6.98492 111 7.33128C110.536 7.73537 110.015 8.024 109.464 8.28377C101.987 12.0072 95.1181 16.6253 88.5392 21.7342C88.2494 22.5135 87.5538 22.8598 86.9742 23.3217C84.9165 25.0246 82.9167 26.7853 80.946 28.5748C78.2507 31.1725 75.5554 33.7991 73.034 36.57C70.3677 39.5141 67.8173 42.5447 65.4408 45.7197C59.5285 53.6283 54.7465 62.1431 51.1818 71.3505C51.0369 71.6969 50.9209 72.0144 50.6601 72.2742C49.8196 73.1978 48.6893 73.0823 48.0517 72.0144C47.5301 71.1196 47.1533 70.1094 46.7476 69.1569C44.2262 63.5574 41.1831 58.2465 37.4734 53.3108C34.7201 49.674 31.5611 46.4125 27.6486 43.9591C26.2865 43.122 25.0982 42.0829 24.6345 40.4088C23.9969 38.042 25.2141 34.7805 27.3588 33.2218C30.8366 30.7684 34.7491 30.3355 38.8645 33.0487C41.5309 34.7805 43.6465 37.0895 45.6463 39.5141C46.9215 41.0438 48.0517 42.6602 49.153 44.3054C49.7327 45.2002 49.8486 45.2002 50.4282 44.3631C55.2392 37.5225 60.7168 31.2591 66.8029 25.5153C69.0055 23.4371 71.353 21.5321 73.7585 19.656C76.164 17.8953 78.6275 16.1924 81.1778 14.6337C81.5546 14.5183 81.9024 14.2585 82.3661 14.2874Z" fill="#2962FF"/>
<path d="M80.859 28.3728C83.2935 26.006 85.9308 23.8701 88.5682 21.7342C90.0462 24.3608 91.5533 26.9873 92.7126 29.7871C100.538 48.6061 95.118 71.0908 79.6128 84.3102C71.9327 90.8334 63.1512 94.8454 53.1235 95.769C36.7199 97.2411 22.8666 91.7859 11.8825 79.5189C5.62248 72.5628 1.85486 64.3367 0.550682 55.0715C-1.44906 40.8707 2.14468 28.113 11.3609 17.0871C18.4324 8.65901 27.4457 3.20381 38.2559 1.06791C53.0656 -1.87617 66.4841 1.32768 78.3666 10.6506C79.7867 11.7763 81.1199 12.9885 82.3661 14.2874C79.4969 16.0769 76.6857 17.9819 73.9034 19.9446C73.3818 20.0312 73.1209 19.6271 72.8021 19.3674C68.1361 15.4419 62.8904 12.671 56.9201 11.2856C48.7763 9.38059 40.8353 10.0156 33.1551 13.3349C24.8084 16.8851 18.5483 22.831 14.346 30.8839C12.1724 35.0402 10.8972 39.5141 10.4335 44.19C9.67993 51.3481 10.9261 58.1599 14.0562 64.5676C17.447 71.5237 22.6058 76.9212 29.3295 80.8178C33.6188 83.3 38.2559 84.8875 43.2118 85.4936C50.6601 86.4173 57.8765 85.4936 64.6003 82.0877C76.7436 75.9398 83.6992 65.9531 85.699 52.6181C86.8583 44.825 85.4671 37.3205 81.6995 30.3355C81.3517 29.7294 80.859 29.1521 80.859 28.3728Z" fill="#BFD0FF"/>
</g>
<defs>
<clipPath id="clip0_149_2838">
<rect width="111" height="96" fill="white"/>
</clipPath>
</defs>
</svg>
