<svg width="20" height="17" viewBox="0 0 20 17" fill="none" xmlns="http://www.w3.org/2000/svg">
<path d="M0 14.9981C0 11.5696 0 8.14863 0 4.72021C0.0265013 4.73502 0.059628 4.74243 0.0861293 4.76464C2.78927 6.78615 5.49903 8.80766 8.20216 10.8292C9.38147 11.7103 10.6005 11.7177 11.7798 10.844C14.4565 8.85209 17.1265 6.85279 19.7965 4.86091C19.8561 4.81648 19.9091 4.77945 19.9953 4.72021C19.9953 4.80167 19.9953 4.8535 19.9953 4.89793C19.9953 8.16344 19.9953 11.429 19.9953 14.6945C19.9953 14.8722 19.9754 15.0573 19.9356 15.235C19.717 16.1976 18.9948 16.7974 18.054 16.7974C15.3907 16.7974 12.7273 16.7974 10.0705 16.7974C7.36075 16.7974 4.65761 16.7974 1.94785 16.7974C1.41782 16.7974 0.954048 16.6197 0.563153 16.2124C0.251763 15.8644 0.09938 15.4497 0 14.9981Z" fill="#779BFF"/>
<path d="M0 1.78784C0.0331267 1.66196 0.059628 1.53608 0.09938 1.4102C0.357768 0.55865 1.04018 0.0181006 1.86834 0.00329102C2.25261 -0.00411377 2.63688 0.00329102 3.02115 0.00329102C8.02328 0.00329102 13.032 0.00329102 18.0342 0.00329102C18.6172 0.00329102 19.1207 0.195815 19.5182 0.691936C20.2669 1.61753 20.1278 3.00963 19.2068 3.70568C17.9944 4.63128 16.7621 5.53466 15.543 6.44545C14.0855 7.53396 12.6345 8.62246 11.1769 9.70356C10.3421 10.3256 9.65974 10.3256 8.82494 9.70356C6.26094 7.79312 3.69694 5.87529 1.12631 3.97226C0.576404 3.56499 0.132507 3.1059 0 2.35801C0 2.16549 0 1.98037 0 1.78784Z" fill="#779BFF"/>
</svg>
