<svg width="20" height="20" viewBox="0 0 20 20" fill="none" xmlns="http://www.w3.org/2000/svg">
<path d="M9.9919 19.8753C7.8451 19.8753 5.69167 19.882 3.54487 19.8753C1.74262 19.8687 0.331296 18.6694 0.0331296 16.887C0.00662593 16.6949 0 16.4961 0 16.2973C0 13.5476 0 10.7978 0 8.04141C0 6.7361 0.543326 5.72896 1.61673 4.99349C3.71052 3.56891 5.80431 2.13108 7.89811 0.699884C9.2498 -0.227746 10.734 -0.234372 12.0791 0.686632C14.1861 2.12446 16.2932 3.56891 18.4002 5.01336C19.4537 5.73559 19.9971 6.73611 19.9971 8.02154C19.9971 10.7912 20.0037 13.5542 19.9971 16.3238C19.9904 18.1393 18.8044 19.5374 17.022 19.8422C16.81 19.8753 16.5847 19.882 16.366 19.882C14.2391 19.8753 12.1188 19.8753 9.9919 19.8753ZM9.99853 16.3768C10.7605 16.3768 11.5291 16.3768 12.2911 16.3768C12.364 16.3768 12.4302 16.3768 12.5031 16.3702C12.8013 16.3437 12.9934 16.1449 13.0001 15.8799C13.0067 15.6016 12.8013 15.3962 12.4965 15.3697C12.4435 15.3631 12.3905 15.3697 12.3309 15.3697C10.7804 15.3697 9.22329 15.3697 7.67283 15.3697C7.61319 15.3697 7.54693 15.3697 7.4873 15.3763C7.19576 15.4094 7.00361 15.6149 7.00361 15.8799C7.00361 16.1516 7.20239 16.3503 7.49393 16.3768C7.56681 16.3835 7.63307 16.3835 7.70596 16.3835C8.46794 16.3768 9.23655 16.3768 9.99853 16.3768Z" fill="white"/>
</svg>
