<svg width="62" height="40" viewBox="0 0 62 40" fill="none" xmlns="http://www.w3.org/2000/svg">
<path d="M0 38.8888V25.7114H20.1327V38.8888H0ZM10.0997 27.0892H2.32215C1.57773 27.0892 1.3444 27.3225 1.3444 28.0669V36.5333C1.3444 37.2666 1.59995 37.511 2.33326 37.511H17.7772C18.5105 37.511 18.7438 37.2666 18.7438 36.5222V28.1002C18.7438 27.3003 18.5327 27.0892 17.7217 27.0892H10.0997Z" fill="white"/>
<path d="M0.677887 24.3116L2.31117 22.0894C7.59248 14.8304 12.8701 7.58246 18.144 0.345662C18.2164 0.233472 18.3173 0.142491 18.4364 0.0819865C18.5554 0.021482 18.6884 -0.00638358 18.8217 0.00122845H38.1878L37.9545 0.367883C32.2213 8.22689 26.4882 16.0859 20.755 23.9449C20.6832 24.0676 20.5786 24.1679 20.4531 24.2347C20.3275 24.3014 20.1858 24.3318 20.0439 24.3227H0.677887V24.3116Z" fill="white"/>
<path d="M17.3441 28.4779V36.0777H3.50015C3.58904 35.9444 3.64459 35.8444 3.72237 35.7444C5.4112 33.4222 7.11115 31.1112 8.78887 28.7779C8.85708 28.675 8.95213 28.5926 9.06375 28.5397C9.17536 28.4869 9.29931 28.4655 9.42218 28.4779C11.911 28.4779 14.4109 28.4779 16.8997 28.4779H17.3441Z" fill="white"/>
<path d="M2.81088 28.5004H7.25518L2.81088 34.6335V28.5004Z" fill="white"/>
<path d="M61.1096 14.1495C61.0087 14.24 60.9158 14.3394 60.8318 14.4466C55.2542 22.3397 49.6692 30.2099 44.0768 38.0573C43.999 38.1715 43.9212 38.2858 43.7768 38.4687C43.7768 38.2744 43.7768 38.1716 43.7768 38.0687C43.7768 34.1374 43.7768 30.2061 43.7768 26.2748C43.7795 26.0704 43.8414 25.8714 43.9546 25.7034L60.8985 1.77272C60.8985 1.70415 61.0429 1.63559 61.1096 1.56702V14.1495Z" fill="white"/>
<path d="M22.2222 39.9999V26.446H42.3549V39.9999H22.2222ZM32.3218 27.8631H24.5443C23.7999 27.8631 23.5666 28.1031 23.5666 28.8688V37.5771C23.5666 38.3314 23.8221 38.5828 24.5554 38.5828H39.9994C40.7327 38.5828 40.966 38.3314 40.966 37.5657V28.9031C40.966 28.0803 40.7549 27.8631 39.9438 27.8631H32.3218Z" fill="white"/>
<path d="M22.9001 25.0062L24.5333 22.7205C29.8146 15.2541 35.0923 7.79911 40.3662 0.355538C40.4386 0.240143 40.5395 0.146562 40.6586 0.084329C40.7776 0.0220958 40.9106 -0.00656596 41.0439 0.00126354H60.41L60.1766 0.378394C54.4435 8.46194 48.7103 16.5455 42.9772 24.629C42.9054 24.7553 42.8008 24.8585 42.6752 24.9271C42.5497 24.9957 42.408 25.027 42.2661 25.0176H22.9001V25.0062Z" fill="white"/>
<path d="M39.5663 29.2916V37.1085H25.7223C25.8112 36.9714 25.8668 36.8685 25.9445 36.7657C27.6334 34.3772 29.3333 32.0001 31.011 29.6002C31.0792 29.4943 31.1743 29.4096 31.2859 29.3552C31.3975 29.3008 31.5215 29.2788 31.6444 29.2916C34.1332 29.2916 36.6331 29.2916 39.1219 29.2916H39.5663Z" fill="white"/>
<path d="M25.0331 29.3147H29.4774L25.0331 35.6231V29.3147Z" fill="white"/>
</svg>
