<svg width="52" height="53" viewBox="0 0 52 53" fill="none" xmlns="http://www.w3.org/2000/svg">
<g clip-path="url(#clip0_486_561)">
<path d="M50.0349 24.9857C48.8256 25.5914 47.6163 26.3486 46.407 26.9543C46.1047 27.1057 45.9535 27.2572 45.9535 27.7114C45.9535 32.2543 45.9535 36.9486 45.9535 41.4914C45.9535 41.6429 45.9535 41.9457 45.8023 42.0972C45.6512 41.7943 45.6512 41.6429 45.6512 41.34C45.6512 36.9486 45.6512 32.7086 45.6512 28.3172C45.6512 28.1657 45.6512 28.1657 45.6512 28.0143C45.6512 27.7114 45.5 27.56 45.1977 27.7114C44.4419 28.1657 43.6861 28.62 42.7791 29.0743C39.4535 30.8914 36.1279 32.7086 32.8023 34.5257C32.6512 34.6772 32.5 34.6772 32.1977 34.6772C32.0465 34.6772 31.7442 34.6772 31.593 34.6772C31.2907 34.5257 30.9884 34.2229 30.6861 34.0714C29.1744 32.5572 27.5116 30.8914 26 29.3772C25.8488 29.5286 26 29.68 26 29.8314C26 37.2514 26 44.52 26 51.94C26 52.3943 26 52.6972 26 53C26 53 26 53 26 53.1514C25.8488 53.1514 25.6977 53.1514 25.5465 53.1514C24.1861 52.3943 22.8256 51.6372 21.4651 50.88C16.4768 48.1543 11.4884 45.4286 6.50001 42.8543C6.34885 42.7029 6.04652 42.7029 6.04652 42.4C5.89536 42.2486 6.04652 42.0972 6.04652 41.9457C6.04652 37.2514 6.04652 32.7086 6.04652 28.0143C6.04652 27.4086 6.04652 27.4086 6.65117 27.7114C10.7326 29.9829 14.9651 32.2543 19.0465 34.5257C19.6512 34.8286 19.9535 34.8286 20.407 34.3743C22.0698 32.7086 23.5814 31.1943 25.2442 29.5286C25.5465 29.2257 25.6977 28.9229 25.6977 28.4686C26 27.8629 26.6047 27.7114 27.2093 27.4086C31.4419 25.1372 35.5233 22.8657 39.7558 20.5943C40.9651 19.9886 42.0233 19.3829 43.2326 18.7772C43.3837 18.7772 43.5349 18.6257 43.6861 18.6257C44.1395 18.6257 44.4419 18.7772 44.7442 19.08C46.2558 20.7457 47.9186 22.26 49.4302 23.9257C49.8837 23.9257 50.1861 24.38 50.0349 24.9857Z" fill="#F1C296"/>
<path d="M26.1512 52.8486C25.8488 52.8486 26 52.5457 26 52.3943C26 51.1828 26 49.82 26 48.6086C26 42.2486 26 35.7371 26 29.3771C26 29.2257 26 29.0743 26 28.7714C27.6628 30.4371 29.3256 32.1029 30.9884 33.7686C31.2907 34.0714 31.4419 34.2229 31.8953 34.3743C32.0465 34.2229 32.1977 34.3743 32.3488 34.2229C32.5 34.2229 32.6512 34.2229 32.6512 34.0714C35.0698 32.7086 37.4884 31.4971 39.907 30.1343C40.8139 29.68 41.7209 29.0743 42.7791 28.62C42.9302 28.7714 42.9302 29.0743 42.9302 29.3771C42.9302 33.92 42.9302 38.4629 42.9302 43.0057C42.9302 43.3086 42.9302 43.46 42.7791 43.7629C40.2093 45.1257 37.6395 46.64 35.0698 48.0029C32.3488 49.5171 29.4767 51.0314 26.7558 52.5457C26.4535 52.8486 26.3023 52.8486 26.1512 52.8486Z" fill="#E1AD82"/>
<path d="M25.8488 28.0143C26.1512 28.3171 26 28.62 25.6977 28.9229C23.8837 30.74 22.2209 32.4057 20.407 34.2229C19.9535 34.6771 19.6512 34.5257 19.1977 34.2229C18.2907 33.7686 17.3837 33.3143 16.4767 32.7086C14.9651 31.9514 13.4535 31.0429 12.093 30.2857C10.2791 29.2257 8.31395 28.3171 6.5 27.2571C6.04651 26.9543 6.19768 27.2571 6.19768 27.56C6.19768 30.8914 6.19768 34.2229 6.19768 37.7057C6.19768 39.22 6.19768 40.5829 6.19768 42.0971C5.89535 41.9457 6.04651 41.6429 6.04651 41.4914C6.04651 36.9486 6.04651 32.2543 6.04651 27.7114C6.04651 27.4086 5.89535 27.1057 5.59302 26.9543C3.93023 26.0457 2.26744 25.1371 0.604652 24.2286C-0.151162 23.7743 -0.302325 23.32 0.302327 22.7143C2.11628 20.8971 3.77907 19.2314 5.59302 17.4143L5.74419 17.2629C6.04651 17.1114 6.19767 17.2629 6.34884 17.2629C7.40698 17.7171 8.31395 18.3229 9.37209 18.9286C11.3372 19.9886 13.3023 21.0486 15.2674 22.1086C17.9884 23.6229 20.8605 25.1371 23.5814 26.6514C24.186 26.9543 24.6395 27.2571 25.2442 27.56C25.6977 27.56 25.8488 27.7114 25.8488 28.0143Z" fill="#FED1A5"/>
<path d="M26 5.90574C26 5.60289 26.3023 5.60289 26.4535 5.45146C28.1163 3.78574 29.6279 2.27146 31.2907 0.605742C31.8954 2.81632e-05 32.0465 2.81632e-05 32.8023 0.454314C39 3.78574 45.1977 7.11717 51.2442 10.4486C52 10.9029 52.1512 11.3572 51.5465 11.9629C49.8837 13.6286 48.2209 15.4457 46.407 17.1115C46.2558 17.2629 46.2558 17.2629 46.1047 17.2629C45.9535 17.4143 45.9535 17.4143 45.8023 17.4143C45.6512 17.4143 45.5 17.4143 45.3488 17.4143C44.1395 16.96 43.2326 16.2029 42.0233 15.7486C40.0581 14.6886 38.093 13.6286 36.1279 12.5686C33.407 11.0543 30.5349 9.54003 27.814 8.02574C27.0581 7.57146 26.3023 7.2686 25.6977 6.66289C25.6977 6.2086 25.8488 6.05717 26 5.90574Z" fill="#D29B72"/>
<path d="M26 5.90576C26 6.20862 25.8488 6.36004 25.8488 6.51147C25.8488 6.81433 25.5465 6.96576 25.3953 7.11719C23.7326 8.02576 22.0698 8.93433 20.407 9.8429C17.5349 11.3572 14.814 12.8715 11.9419 14.3858C10.1279 15.4458 8.1628 16.3543 6.34884 17.4143C6.19768 17.4143 5.89535 17.2629 5.74419 17.2629C5.59303 17.2629 5.44187 17.1115 5.2907 16.96C3.77907 15.2943 2.11628 13.6286 0.453493 11.9629C-0.302321 11.2058 -0.30232 10.7515 0.755819 10.1458C6.80233 6.81433 12.8488 3.63433 18.8954 0.302901C19.0465 0.151472 19.1977 0.151472 19.3488 4.38243e-05C19.8023 -0.302813 20.1047 -0.151385 20.407 0.151472C22.2209 1.96862 24.0349 3.78576 25.8488 5.6029C25.8488 5.90576 26 5.90576 26 5.90576Z" fill="#E1AD82"/>
<path d="M42.7791 44.0657C42.6279 43.7629 42.7791 43.6114 42.7791 43.3086C42.7791 38.6143 42.7791 33.7686 42.7791 29.0743C43.686 28.4686 44.7442 27.8629 45.9535 27.4086C45.9535 32.4057 45.9535 37.4029 45.9535 42.2486C45.9535 42.4 45.8023 42.5514 45.6512 42.7029C44.593 43.0057 43.686 43.46 42.7791 44.0657Z" fill="#D29B72"/>
<path d="M45.8023 17.1115C45.9535 17.1115 45.9535 17.1115 46.1047 17.1115C46.2558 17.4143 46.407 17.4143 46.5581 17.5657C48.2209 19.2315 49.8837 20.8972 51.3954 22.4114C52 23.1686 52 23.6229 51.093 24.0772C50.6395 24.2286 50.1861 24.5314 49.8837 24.6829C50.0349 23.7743 49.2791 23.32 48.8256 22.8657C47.4651 21.5029 46.2558 20.2914 44.8954 18.9286C44.593 18.6257 44.1395 18.1714 43.6861 18.02C43.6861 17.7172 43.8372 17.7172 43.9884 17.7172C44.4419 17.4143 44.7442 17.1115 45.3488 17.1115C45.6512 17.4143 45.6512 17.2629 45.8023 17.1115Z" fill="#E1AD83"/>
<path d="M45.5 17.4143C44.8953 17.5657 44.2907 18.02 43.686 18.3228C42.3256 19.08 41.1163 19.6857 39.7558 20.4428C37.9419 21.5028 36.1279 22.4114 34.314 23.4714C31.7442 24.8343 29.1744 26.1971 26.6047 27.7114C26.3023 27.8628 26.3023 28.1657 26 28.1657C25.6977 27.7114 25.2442 27.56 24.7907 27.4086C21.6163 25.5914 18.4419 23.9257 15.1163 22.26C12.3953 20.7457 9.67442 19.3828 6.95349 17.8686C6.80233 17.7171 6.65116 17.7171 6.5 17.5657C6.65116 17.2628 6.95349 17.2628 7.10465 17.1114C9.06977 15.9 10.8837 14.84 12.8488 13.78C16.0233 12.1143 19.1977 10.2971 22.3721 8.63141C23.2791 8.0257 24.3372 7.57141 25.3953 7.11713C25.6977 6.9657 25.8488 6.81427 26 6.66284C27.0581 7.41998 28.2674 7.87427 29.3256 8.47998C30.8372 9.23713 32.1977 9.99427 33.7093 10.9028C36.5814 12.4171 39.6046 14.0828 42.4767 15.5971C43.3837 16.0514 44.4419 16.6571 45.5 17.4143C45.5 17.2628 45.5 17.2628 45.5 17.4143Z" fill="#C38C69"/>
<path d="M32.3488 34.5258C32.1977 34.6772 32.0465 34.6772 31.8954 34.6772C32.0465 34.3743 32.1977 34.5258 32.3488 34.5258Z" fill="#F1CBA9"/>
<path d="M45.5 17.4144C45.6512 17.2629 45.6512 17.2629 45.8023 17.2629C45.8023 17.4144 45.6512 17.4144 45.5 17.4144Z" fill="#DFB28F"/>
</g>
<defs>
<clipPath id="clip0_486_561">
<rect width="52" height="53" fill="white"/>
</clipPath>
</defs>
</svg>
