<svg width="20" height="18" viewBox="0 0 20 18" fill="none" xmlns="http://www.w3.org/2000/svg">
<g id="Group 36771">
<path id="Vector" d="M19.3655 7.32901C18.2331 7.32901 17.1321 7.32566 16.0326 7.32901C14.4212 7.33515 13.0817 8.42786 12.7445 10.0091C12.3162 12.0142 13.874 13.9846 15.9238 14.0148C16.9897 14.0304 18.0556 14.0187 19.1215 14.0192H19.3297C19.3297 14.6988 19.3856 15.3632 19.3152 16.0143C19.2309 16.7764 18.5257 17.3348 17.7557 17.3599C17.7072 17.3599 17.658 17.3599 17.6094 17.3599C12.8578 17.3599 8.1064 17.3599 3.35515 17.3599C2.05697 17.3599 0.991067 16.519 0.70463 15.27C0.659439 15.0663 0.636968 14.8582 0.637627 14.6496C0.635394 10.8822 0.634277 7.11404 0.634277 3.34513C0.637069 1.82417 1.81744 0.642684 3.33952 0.639893C7.42892 0.639893 11.5185 0.639893 15.6083 0.639893C16.2348 0.639893 16.6876 1.06145 16.6893 1.63991C16.691 2.21837 16.2376 2.64495 15.6139 2.64495C11.5665 2.6483 7.51882 2.64998 3.47073 2.64998C3.38017 2.64586 3.28942 2.64903 3.19937 2.65947C3.04055 2.68993 2.8981 2.77681 2.79831 2.90407C2.69853 3.03133 2.64814 3.19039 2.65643 3.35189C2.66473 3.5134 2.73117 3.66645 2.84347 3.78281C2.95578 3.89917 3.10638 3.97099 3.26749 3.98501C3.34398 3.99059 3.42104 3.98501 3.49753 3.98501H17.543C18.6737 3.98501 19.3649 4.6757 19.3655 5.80581C19.366 6.30554 19.3655 6.80583 19.3655 7.32901Z" fill="white"/>
<path id="Vector_2" d="M19.3488 12.6791C18.2243 12.6791 17.1103 12.6791 15.9987 12.6791C15.8945 12.6772 15.7906 12.6665 15.6882 12.6473C15.195 12.5655 14.7502 12.3021 14.4412 11.909C14.1323 11.5158 13.9816 11.0214 14.0187 10.5227C14.0907 9.50933 14.9445 8.68575 15.9674 8.67347C17.0891 8.65951 18.2109 8.67012 19.3488 8.67012V12.6791Z" fill="white"/>
</g>
</svg>
