<svg width="48" height="48" viewBox="0 0 48 48" fill="none" xmlns="http://www.w3.org/2000/svg">
<g clip-path="url(#clip0_486_573)">
<path d="M48 28.3324C44.5616 28.3324 40.9857 28.3324 37.5473 28.3324C37.2722 28.3324 37.1347 28.3324 36.9971 28.3324C36.8596 27.7822 36.7221 27.2321 36.5845 26.6819V26.5444C37.1347 25.0315 36.7221 23.6562 36.3095 22.2808C36.0344 21.3181 35.4842 20.4928 35.0716 19.6676C34.9341 19.3926 34.7966 19.255 34.659 18.8424C39.1977 18.8424 43.5989 18.8424 48.1375 18.8424C48 22.0057 48 25.1691 48 28.3324Z" fill="white"/>
<path d="M43.7364 0C43.7364 1.10029 43.7364 2.20057 43.7364 3.4384C42.086 3.4384 40.298 3.4384 38.51 3.4384C38.51 2.33811 38.51 1.10029 38.51 0C40.298 0 41.9484 0 43.7364 0Z" fill="white"/>
<path d="M3.43839 13.7535C3.43839 14.0286 3.43839 14.1661 3.43839 14.4412C3.43839 17.0544 3.43839 19.53 3.43839 22.1432C3.43839 23.5186 4.12607 24.0687 5.36389 24.0687C9.21489 24.0687 12.9284 24.0687 16.7794 24.0687C18.1547 24.0687 18.7049 23.381 18.8424 22.1432C18.8424 19.9427 18.8424 17.7421 18.8424 15.5415C18.8424 14.4412 19.3925 13.7535 20.6304 13.7535C21.1805 13.7535 21.7307 13.7535 22.2808 13.7535C22.2808 17.7421 22.2808 21.7306 22.2808 25.7192C22.1433 25.7192 21.8682 25.7192 21.7307 25.7192C18.5673 25.7192 15.5415 25.7192 12.3782 25.7192C11.4155 25.7192 11.2779 25.8567 11.0029 26.8194C10.8653 27.6447 10.5903 28.3323 10.4527 29.1576C9.48996 29.2951 9.35243 29.5702 9.35243 30.3954C9.35243 31.3581 9.35243 32.1833 9.35243 33.1461C9.35243 33.9713 9.48996 34.1088 10.3152 34.3839C10.8653 38.9226 11.2779 43.4613 11.8281 48C11.6905 48 11.4155 48 11.2779 48C7.83953 48 4.2636 48 0.825208 48C0.137529 48 -0.137543 47.8624 -0.137543 47.0372C-0.137543 36.447 -0.137543 25.9942 -0.137543 15.404C-6.91414e-06 14.3037 0.550136 13.7535 1.78796 13.7535C2.3381 13.7535 2.88824 13.7535 3.43839 13.7535ZM3.43839 34.7965C3.43839 34.1088 3.43839 33.4212 3.43839 32.871C3.43839 32.1833 3.02578 31.7707 2.61317 31.7707C2.06303 31.7707 1.78796 32.1833 1.78796 32.871C1.78796 34.2464 1.78796 35.4842 1.78796 36.8596C1.78796 37.5472 2.06303 37.9598 2.61317 37.9598C3.16332 37.9598 3.43839 37.5472 3.43839 36.9971C3.43839 36.0343 3.43839 35.3467 3.43839 34.7965ZM3.43839 40.8481C3.43839 40.7106 3.43839 40.573 3.43839 40.4355C3.43839 39.8853 3.02578 39.6103 2.61317 39.6103C2.06303 39.6103 1.78796 39.8853 1.78796 40.4355C1.78796 40.7106 1.78796 40.9856 1.78796 41.1232C1.78796 41.6733 2.20057 42.0859 2.61317 42.0859C3.16332 42.0859 3.43839 41.6733 3.43839 41.1232C3.43839 40.9856 3.43839 40.8481 3.43839 40.8481Z" fill="white"/>
<path d="M36.722 48C37.1347 46.3496 36.9971 44.6992 36.8596 43.1863C36.8596 42.361 36.8596 41.6734 36.8596 40.8482C36.9971 39.8854 36.9971 38.9227 36.8596 38.0974C36.722 37.2722 36.722 36.5845 36.8596 35.7593C36.9971 34.7966 36.9971 33.8338 36.8596 33.0086C36.722 32.1834 36.8596 31.3582 36.8596 30.533C36.8596 30.3954 36.8596 30.3954 36.8596 30.2579C36.8596 30.2579 36.8596 30.2579 36.8596 30.1204C40.4355 30.1204 44.149 30.1204 47.8624 30.1204C47.7249 31.0831 47.5874 31.9083 47.4498 32.8711C46.8997 35.3467 46.6246 37.8224 46.8997 40.4355C47.0372 41.8109 47.3123 43.0487 47.7249 44.4241C48.2751 46.3496 47.0372 48.1376 44.9742 48.1376C42.361 48.1376 39.7478 48.1376 37.1347 48.1376C36.9971 48 36.8596 48 36.722 48ZM43.7364 38.0974C43.7364 38.6476 43.7364 39.1977 43.8739 39.8854C44.149 40.9857 44.4241 42.086 44.6991 43.1863C44.8367 43.5989 45.3868 43.8739 45.7994 43.7364C46.212 43.5989 46.4871 43.1863 46.3496 42.6361C46.3496 42.4986 46.212 42.361 46.212 42.2235C45.2493 39.4728 45.2493 36.7221 46.212 33.9714C46.3495 33.8338 46.3496 33.5588 46.3496 33.4212C46.3496 33.0086 46.0745 32.7335 45.5243 32.7335C45.1117 32.7335 44.8367 32.8711 44.5616 33.2837C44.0114 34.7966 43.7364 36.447 43.7364 38.0974Z" fill="white"/>
<path d="M22.4183 48C19.5301 48 16.6418 48 13.616 48C13.0659 43.4613 12.6533 38.9226 12.1031 34.3839C16.0917 34.3839 19.9427 34.3839 23.9312 34.3839C23.3811 38.9226 22.9685 43.4613 22.4183 48ZM18.0172 43.7363C19.9427 43.7363 21.4556 42.2235 21.4556 40.2979C21.4556 38.3724 19.9427 36.8596 18.0172 36.8596C16.0917 36.8596 14.5788 38.3724 14.5788 40.2979C14.5788 42.2235 16.0917 43.7363 18.0172 43.7363Z" fill="white"/>
<path d="M47.5874 17.1919C43.3238 17.1919 39.0602 17.1919 34.659 17.1919C35.0716 15.9541 35.4842 14.8538 36.0344 13.616C36.9971 11.0028 38.0974 8.25211 39.0602 5.63893C39.1977 5.36385 39.3352 5.22632 39.7479 5.22632C40.7106 5.22632 41.8109 5.22632 42.9112 5.22632C43.1862 5.22632 43.3238 5.36385 43.4613 5.63893C44.8367 9.35239 46.212 13.2034 47.7249 16.9169C47.5874 16.9169 47.5874 17.0544 47.5874 17.1919ZM43.5989 11.1404C43.3238 10.3151 43.0487 9.62746 42.6361 8.93979C42.4986 8.66471 42.086 8.52718 41.6734 8.66471C41.3983 8.80225 41.1232 9.07732 41.2607 9.48993C41.5358 10.1776 41.8109 11.0028 42.086 11.6905C42.2235 11.9656 42.6361 12.1031 43.0487 11.9656C43.3238 11.828 43.5989 11.553 43.5989 11.1404ZM44.9742 14.4412C44.8367 14.1661 44.6991 13.616 44.4241 13.2034C44.149 12.7908 43.7364 12.7908 43.4613 13.0659C43.0487 13.2034 42.9112 13.616 43.0487 14.0286C43.1862 14.4412 43.3238 14.7163 43.4613 15.1289C43.5989 15.5415 44.0115 15.679 44.4241 15.5415C44.6991 15.2664 44.9742 14.9914 44.9742 14.4412Z" fill="white"/>
<path d="M24.0688 25.7191C24.0688 24.4813 24.0688 23.2435 24.0688 22.0057C24.0688 21.8681 24.2063 21.7306 24.2063 21.5931C25.169 19.9426 25.9943 18.2922 26.957 16.6418C27.0945 16.5042 27.2321 16.3667 27.5072 16.3667C28.6074 16.3667 29.8453 16.3667 30.9455 16.3667C31.0831 16.3667 31.3582 16.5042 31.4957 16.6418C32.4584 18.2922 33.4212 19.9426 34.2464 21.7306C34.7965 22.8309 35.2092 24.0687 35.2092 25.3065C35.2092 25.5816 35.0716 25.7191 34.7965 25.7191C31.3582 25.7191 27.7822 25.7191 24.3438 25.7191C24.2063 25.7191 24.2063 25.7191 24.0688 25.7191Z" fill="white"/>
<path d="M24.0688 48C24.2063 46.3495 24.4814 44.5616 24.6189 42.9111C24.7564 42.9111 24.894 42.9111 25.169 42.9111C28.3324 42.9111 31.3582 42.9111 34.5215 42.9111C35.0716 42.9111 35.0716 42.9111 35.0716 43.4613C35.0716 44.5616 35.0716 45.5243 35.0716 46.6246C35.0716 47.4498 34.5215 48 33.6963 48C30.6705 48 27.5072 48 24.4814 48C24.4814 48 24.3438 48 24.0688 48Z" fill="white"/>
<path d="M24.894 41.1232C25.0315 40.0229 25.1691 38.9226 25.3066 37.6848C25.4441 37.6848 25.5817 37.6848 25.8567 37.6848C28.745 37.6848 31.7708 37.6848 34.659 37.6848C35.2092 37.6848 35.2092 37.6848 35.2092 38.235C35.2092 39.0602 35.2092 39.8854 35.2092 40.5731C35.2092 40.8481 35.0716 40.9857 34.7966 40.9857C31.6332 40.9857 28.3324 40.9857 25.1691 40.9857C25.0315 41.1232 25.0315 41.1232 24.894 41.1232Z" fill="white"/>
<path d="M25.4441 36.0343C25.4441 35.4842 25.5817 34.9341 25.5817 34.3839C26.6819 34.2464 26.5444 33.4212 26.5444 32.5959C26.6819 32.5959 26.8195 32.5959 26.957 32.5959C29.4327 32.5959 31.9083 32.5959 34.5215 32.5959C35.0716 32.5959 35.0716 32.5959 35.0716 33.1461C35.0716 33.9713 35.0716 34.7965 35.0716 35.4842C35.0716 35.7593 34.9341 35.8968 34.659 35.8968C31.6332 35.8968 28.6074 35.8968 25.5817 35.8968C25.7192 36.0343 25.5817 36.0343 25.4441 36.0343Z" fill="white"/>
<path d="M26.6819 30.9455C26.6819 30.1203 26.8195 29.2951 25.5816 29.2951C25.4441 28.7449 25.3066 28.1948 25.169 27.6447C25.3066 27.6447 25.5816 27.6447 25.7192 27.6447C28.745 27.6447 31.6332 27.6447 34.659 27.6447C35.0716 27.6447 35.3467 27.7822 35.2092 28.1948C35.2092 29.02 35.2092 29.8452 35.2092 30.5329C35.2092 30.808 35.2092 30.9455 34.7965 30.9455C32.1834 30.9455 29.4326 30.9455 26.6819 30.9455Z" fill="white"/>
<path d="M11.1404 30.9456C15.6791 30.9456 20.2178 30.9456 24.7564 30.9456C24.7564 31.4957 24.7564 32.0458 24.7564 32.596C20.2178 32.596 15.6791 32.596 11.1404 32.596C11.1404 32.0458 11.1404 31.4957 11.1404 30.9456Z" fill="white"/>
<path d="M23.7937 29.1576C19.9427 29.1576 16.0917 29.1576 12.2407 29.1576C12.3782 28.6075 12.5157 28.1949 12.6533 27.6447C12.6533 27.5072 12.9284 27.5072 13.0659 27.5072C15.2665 27.5072 17.467 27.5072 19.5301 27.5072C20.6304 27.5072 21.7306 27.5072 22.8309 27.5072C23.106 27.5072 23.2435 27.6447 23.3811 27.9198C23.5186 28.3324 23.6561 28.745 23.7937 29.1576Z" fill="white"/>
<path d="M26.6819 11.1404C28.3324 11.1404 29.9828 11.1404 31.7708 11.1404C31.7708 12.2407 31.7708 13.341 31.7708 14.5788C30.1203 14.5788 28.4699 14.5788 26.6819 14.5788C26.6819 13.4785 26.6819 12.2407 26.6819 11.1404Z" fill="white"/>
<path d="M5.22635 13.7536C6.1891 13.6161 6.87678 14.1662 6.87678 14.9914C6.87678 17.3295 6.87678 19.6676 6.87678 22.0058C6.87678 22.1433 6.87678 22.1433 6.87678 22.2808C6.32664 22.2808 5.77649 22.2808 5.22635 22.2808C5.22635 19.3926 5.22635 16.6419 5.22635 13.7536Z" fill="white"/>
<path d="M19.6676 40.298C19.6676 41.2608 18.9799 42.086 18.0172 42.086C17.0544 42.086 16.3668 41.3983 16.3668 40.4355C16.3668 39.4728 17.0544 38.6476 18.0172 38.6476C18.9799 38.6476 19.6676 39.3353 19.6676 40.298Z" fill="white"/>
</g>
<defs>
<clipPath id="clip0_486_573">
<rect width="48" height="48" fill="white"/>
</clipPath>
</defs>
</svg>
