<svg width="58" height="43" viewBox="0 0 58 43" fill="none" xmlns="http://www.w3.org/2000/svg">
<g clip-path="url(#clip0_491_640)">
<path d="M9.98889 28.0575C8.59259 26.445 7.08889 25.0475 5.37037 23.865C5.15555 23.7575 4.94074 23.65 4.83333 23.65C3.32963 24.1875 1.71852 24.8325 0.214813 25.4775C0.429628 25.6925 0.644443 25.8 0.75185 25.9075C4.08148 27.4125 7.08889 29.24 9.66667 31.7125L9.98889 28.0575Z" fill="white"/>
<path d="M10.2037 25.585L10.5259 21.93C9.02224 20.1025 7.30372 18.49 5.37038 17.2C5.04816 16.985 4.83335 16.985 4.51113 17.0925C3.22224 17.63 1.93335 18.1675 0.644459 18.5975C0.537051 18.705 0.322237 18.705 0.107422 18.92C0.537051 19.135 0.751866 19.2425 1.07409 19.35C4.51113 20.9625 7.62594 23.005 10.2037 25.585Z" fill="white"/>
<path d="M36.1963 34.9374V30.2074C35.0148 30.3149 33.7259 30.3149 32.5444 30.5299C27.8185 31.1749 24.1667 33.5399 22.0185 37.9474C21.6963 38.6999 21.2667 38.8074 20.5148 38.3774C17.1852 36.4424 14.2852 33.9699 12.0296 30.8524L11.8148 34.0774C11.8148 34.1849 11.9222 34.1849 11.9222 34.2924C12.9963 35.5824 13.963 36.9799 15.037 38.2699C16.6482 40.2049 18.5815 41.7099 20.7296 42.9999C20.837 42.9999 20.837 42.9999 20.837 42.9999C20.9444 42.8924 21.0519 42.6774 21.1593 42.5699C22.4482 40.4199 24.1667 38.6999 26.3148 37.4099C28.6778 36.0124 31.363 35.3674 34.0482 35.1524C35.2296 35.0449 36.3037 35.0449 37.4852 34.9374H36.1963Z" fill="white"/>
<path d="M56.8185 26.8749C56.0667 26.3374 55.3148 25.7999 54.4555 25.3699C54.2407 25.2624 53.9185 25.2624 53.5963 25.3699C51.663 26.1224 49.7296 26.8749 47.6889 27.6274C44.6815 28.7024 41.6741 29.5624 38.4518 29.9924V34.8299C39.8481 34.6149 41.2444 34.3999 42.6407 34.0774C46.937 32.8949 51.1259 31.1749 55.3148 29.3474C56.1741 29.0249 56.9259 28.5949 57.8926 28.1649C57.5704 27.6274 57.2481 27.1974 56.8185 26.8749Z" fill="white"/>
<path d="M36.1963 23.5425C34.9074 23.65 33.6185 23.65 32.3296 23.865C27.7111 24.6175 24.1667 26.875 22.1259 31.175C21.6963 31.9275 21.2667 32.1425 20.5148 31.7125C17.4 29.9925 14.8222 27.735 12.6741 24.94L12.3518 28.165C13.2111 29.3475 14.0704 30.53 15.037 31.605C16.6481 33.54 18.5815 35.045 20.7296 36.335C22.6629 33.4325 23.5222 32.465 25.1333 31.39C28.1407 29.3475 31.4704 28.4875 35.0148 28.38C35.4444 28.38 35.7667 28.38 36.1963 28.38V23.5425Z" fill="white"/>
<path d="M57.6778 21.07C56.8185 19.995 55.5296 19.2425 54.3481 18.5975C54.2407 18.49 53.9185 18.5975 53.8111 18.705C51.8778 19.4575 50.0518 20.21 48.1185 20.855C45.0037 22.0375 41.8889 22.8975 38.6667 23.22V28.0575C40.4926 27.8425 42.2111 27.4125 44.037 26.875C48.763 25.4775 53.2741 23.5425 57.7852 21.5C57.8926 21.5 57.8926 21.3925 58 21.285C57.7852 21.285 57.7852 21.1775 57.6778 21.07Z" fill="white"/>
<path d="M19.2259 7.20251C18.5815 7.41751 17.937 7.63251 17.1852 7.74001C16.0037 7.95501 14.7148 7.84751 13.5333 8.06251C9.77408 8.70752 6.22963 9.67502 2.79259 11.0725C1.93333 11.395 0.966667 11.825 0 12.255C0.107407 12.3625 0.107407 12.3625 0.214815 12.3625C0.42963 12.47 0.537037 12.47 0.751852 12.5775C4.72593 14.405 8.27037 16.77 11.1704 19.8875C11.2778 19.78 11.3852 19.78 11.4926 19.6725L26.3148 13.2225L19.2259 7.20251Z" fill="white"/>
<path d="M28.5704 12.255L40.6 6.98748C38.4518 5.58998 36.5185 3.86998 34.9074 1.61248C34.5852 1.07498 34.263 0.322479 33.7259 0.107479C33.1889 -0.107521 32.437 0.214979 31.7926 0.322479C28.5704 0.967479 25.8852 2.47248 23.4148 4.62248C22.7704 5.15998 22.1259 5.69748 21.4815 6.01998L28.5704 12.255Z" fill="white"/>
<path d="M28.1408 15.0499L12.9963 21.6074V22.1449C13.2111 22.3599 13.3185 22.6824 13.5333 22.8974C14.7148 24.7249 16.2185 26.3374 17.937 27.6274C18.9037 28.3799 19.8704 29.0249 20.837 29.7774C22.5556 27.0899 23.5222 26.0149 25.0259 24.9399C27.9259 22.8974 31.1482 21.9299 34.5852 21.8224C35.0148 21.8224 35.4445 21.8224 35.8741 21.7149L28.1408 15.0499Z" fill="white"/>
<path d="M56.1741 13.1149C53.3815 11.2874 50.3741 10.2124 47.1519 9.56743C45.863 9.24493 44.5741 8.92243 43.3926 8.49243L30.6111 13.9749L38.237 20.6399C38.4519 20.8549 38.6667 21.1774 38.6667 21.4999C39.9556 21.3924 41.2444 21.0699 42.5333 20.7474C46.2926 19.7799 49.9444 18.2749 53.4889 16.8774C54.9926 16.2324 56.3889 15.5874 57.8926 14.9424C57.8926 14.8349 58 14.7274 58 14.7274C57.3556 14.0824 56.8185 13.5449 56.1741 13.1149Z" fill="white"/>
</g>
<defs>
<clipPath id="clip0_491_640">
<rect width="58" height="43" fill="white"/>
</clipPath>
</defs>
</svg>
