<svg width="25" height="25" viewBox="0 0 25 25" fill="none" xmlns="http://www.w3.org/2000/svg">
<path d="M24.9999 12.8912C24.9119 13.1749 24.8581 13.4781 24.7309 13.7422C24.1539 14.9501 23.1856 15.5761 21.8456 15.581C19.1607 15.5908 16.4759 15.581 13.7959 15.5908C13.6394 15.5908 13.4584 15.6543 13.3362 15.7473C12.4461 16.4026 11.5609 17.0677 10.6807 17.7328C10.4166 17.9333 10.1427 18.0018 9.83951 17.8599C9.60477 17.7475 9.46294 17.5518 9.43849 17.2878C9.42871 17.2144 9.42871 17.141 9.42871 17.0677C9.42871 12.4315 9.42871 7.79538 9.42871 3.15923C9.42871 1.75078 10.2259 0.606416 11.5169 0.176056C11.8495 0.0635759 12.2163 0.00978091 12.5684 0.00978091C15.6591 -0.00489045 18.7597 0 21.8554 0.00489045C23.4448 0.00489045 24.6576 1.03189 24.9559 2.60172C24.9657 2.64574 24.9852 2.69464 24.9999 2.73865C24.9999 6.12285 24.9999 9.50704 24.9999 12.8912ZM17.229 7.06671C15.9868 7.06671 14.7397 7.06671 13.4976 7.06671C13.3998 7.06671 13.302 7.06671 13.2041 7.07649C12.8667 7.11072 12.6075 7.36502 12.5586 7.70736C12.5146 8.02034 12.7053 8.36268 13.0085 8.46538C13.1601 8.51428 13.3264 8.52895 13.4878 8.52895C15.9672 8.53384 18.4467 8.53384 20.9262 8.52895C21.0386 8.52895 21.156 8.52406 21.2636 8.5045C21.6646 8.43114 21.9189 8.04969 21.8358 7.65356C21.7575 7.277 21.4788 7.06671 21.0289 7.06671C19.7671 7.06182 18.5005 7.06671 17.229 7.06671ZM17.1899 5.38439C18.1973 5.38439 19.2047 5.38439 20.2122 5.38439C20.5349 5.38439 20.8626 5.39417 21.1854 5.37461C21.5375 5.35505 21.8016 5.09585 21.8505 4.73885C21.8945 4.42586 21.7037 4.08842 21.3957 3.98083C21.2636 3.93193 21.1071 3.92214 20.9653 3.92214C18.4614 3.91725 15.9575 3.91725 13.4536 3.92214C13.3509 3.92214 13.2433 3.92703 13.1406 3.9466C12.8716 4.00039 12.6906 4.16178 12.5977 4.42097C12.4217 4.91491 12.7738 5.38439 13.3313 5.38439C14.6224 5.38928 15.9037 5.38439 17.1899 5.38439ZM14.8865 10.2015C14.373 10.2015 13.8644 10.1966 13.3509 10.2015C12.8765 10.2064 12.5488 10.5096 12.5537 10.9351C12.5586 11.3507 12.8814 11.6588 13.3362 11.6637C14.3681 11.6686 15.4 11.6686 16.4318 11.6637C16.8915 11.6588 17.1996 11.3507 17.1996 10.9253C17.1948 10.4998 16.8818 10.2064 16.4221 10.2015C15.9135 10.2015 15.4 10.2015 14.8865 10.2015Z" fill="#2962FF"/>
<path d="M0.542975 25C0.122396 24.8044 -0.00475562 24.467 0.000134838 24.0122C0.00991574 23.1955 0.0148062 22.3836 0.347357 21.6158C1.0418 20.0069 2.24974 19.0435 3.98096 18.7451C4.07388 18.7305 4.17169 18.7109 4.2695 18.6816C3.31586 18.5398 2.52361 18.1094 1.93186 17.3465C1.33034 16.5738 1.10538 15.6935 1.24231 14.7301C1.49172 12.9549 3.03711 11.698 4.84657 11.7714C6.53378 11.8398 7.99603 13.2678 8.1134 14.9257C8.24544 16.7694 6.97881 18.4224 4.99329 18.6816C5.26715 18.7305 5.50189 18.7598 5.72686 18.8185C7.89822 19.3662 9.292 21.161 9.31645 23.4253C9.31645 23.6356 9.30667 23.8508 9.32134 24.0611C9.34579 24.511 9.17952 24.8338 8.74427 24.9951C6.0105 25 3.27674 25 0.542975 25Z" fill="#2962FF"/>
</svg>
