<svg width="60" height="44" viewBox="0 0 60 44" fill="none" xmlns="http://www.w3.org/2000/svg">
<path d="M60 38.2604C59.6736 39.605 58.601 40.4181 57.7772 41.278C57.9171 41.7002 58.1036 42.0442 58.1347 42.4194C58.2124 43.5921 57.7927 43.9986 56.6114 43.9986C49.943 43.9986 43.2746 43.9986 36.6062 43.9986C35.9845 43.9986 35.3005 44.0612 35.0052 43.3419C34.7254 42.654 34.772 41.966 35.3627 41.3093C34.943 40.9184 34.5389 40.5275 34.1192 40.1523C33.342 39.4174 33 38.5105 33 37.4317C33.0155 28.4568 33 19.4976 33.0155 10.5228C33.0155 9.97552 33.171 9.39701 33.4197 8.9123C34.3834 6.89531 35.3938 4.90958 36.4197 2.84568C35.8601 2.78314 35.7668 2.43916 35.7979 1.98572C35.829 1.61047 35.7979 1.25085 35.7979 0.875595C35.7979 0.0625425 35.8601 0 36.6529 0C38.6891 0 40.7254 0 42.7617 0C47.285 0 51.7927 0 56.3161 0C57.1554 0 57.2176 0.0625425 57.2176 0.89123C57.2176 1.28212 57.2021 1.67301 57.2176 2.0639C57.2487 2.5017 57.1088 2.79878 56.6114 2.84568C57.7461 5.19102 58.8808 7.5051 60 9.8348C60 19.2944 60 28.7695 60 38.2604ZM57.6684 29.1135C55.9275 30.2862 54.2642 31.3807 52.6166 32.5064C52.2435 32.7566 51.9482 32.7723 51.5751 32.5064C50.0207 31.4432 48.4508 30.4113 46.8964 29.3481C46.6166 29.1604 46.4301 29.1448 46.1347 29.3481C44.5803 30.4113 43.0104 31.4432 41.456 32.5064C41.0829 32.7723 40.7876 32.7723 40.4145 32.5064C39.0622 31.5683 37.6788 30.6614 36.3109 29.7389C36.0155 29.5357 35.7047 29.3481 35.3471 29.1135C35.0052 29.4888 34.7098 29.8484 34.3679 30.1611C34.057 30.4425 33.9326 30.7553 33.9482 31.1774C33.9793 32.7566 33.9637 34.3358 33.9637 35.915C33.9637 36.1026 33.9637 36.2903 33.9637 36.4623C42.3886 36.4623 50.7047 36.4623 59.0984 36.4623C59.0984 34.5547 59.0984 32.6628 59.0984 30.7709C59.0984 30.6614 59.0518 30.5364 58.9741 30.4582C58.5233 30.0204 58.1036 29.567 57.6684 29.1135ZM59.0518 11.2576C50.658 11.2576 42.3109 11.2576 33.9793 11.2576C33.9793 12.8837 33.9793 14.4629 33.9793 16.1985C34.2902 15.8702 34.5078 15.6513 34.6943 15.4011C35.0674 14.932 35.4249 14.9007 35.9223 15.2604C37.4301 16.3079 38.9845 17.3086 40.5078 18.3562C40.8031 18.5595 41.0207 18.5751 41.3161 18.3562C42.8549 17.3086 44.4093 16.2767 45.9482 15.2291C46.3523 14.9476 46.6477 14.9476 47.0518 15.2291C48.5907 16.2923 50.1451 17.3086 51.6839 18.3562C51.9793 18.5595 52.1969 18.5751 52.4922 18.3562C54 17.3243 55.5233 16.3236 57.0311 15.3073C57.7306 14.8382 57.7306 14.8382 58.3368 15.448C58.5544 15.6513 58.7565 15.8702 59.0518 16.1516C59.0518 14.4473 59.0518 12.8681 59.0518 11.2576ZM46.5078 43.0605C49.8808 43.0605 53.2539 43.0449 56.6269 43.0761C57.0933 43.0761 57.2487 42.951 57.2176 42.482C57.171 41.9816 56.829 42.138 56.5648 42.138C49.8497 42.138 43.1503 42.138 36.4352 42.138C36.342 42.138 36.2176 42.1067 36.1554 42.1536C36.0155 42.2474 35.8446 42.3569 35.8135 42.4976C35.7047 42.951 35.9223 43.0918 36.3886 43.0918C39.7617 43.0449 43.1347 43.0605 46.5078 43.0605ZM36.7617 1.81373C43.2902 1.81373 49.772 1.81373 56.2539 1.81373C56.2539 1.50102 56.2539 1.23521 56.2539 0.953773C49.7409 0.953773 43.2591 0.953773 36.7617 0.953773C36.7617 1.25085 36.7617 1.51665 36.7617 1.81373Z" fill="white"/>
<path d="M7.46643 5.85889C6.53006 5.48624 6.51445 5.47071 6.79536 4.55462C6.889 4.25961 6.98264 3.9646 7.07627 3.66958C7.29476 2.95534 7.404 2.89324 8.12188 3.11061C11.8205 4.24408 15.5192 5.37755 19.2022 6.51102C21.824 7.31842 24.4459 8.11029 27.0521 8.9177C27.8636 9.16613 27.9104 9.25929 27.6607 10.0822C27.5671 10.4083 27.4578 10.7499 27.3642 11.0759C27.1769 11.6815 27.1457 11.697 26.459 11.7281C26.6307 12.8771 26.818 14.0105 26.9896 15.144C27.1925 16.4483 27.4266 17.737 27.6295 19.0413C27.7543 19.7866 27.6451 20.4853 27.2393 21.1529C26.5059 22.364 25.8504 23.6062 25.1169 24.8328C24.8984 25.2055 24.8828 25.4384 25.1793 25.78C25.9753 26.7116 26.7243 27.6743 27.489 28.6369C28.2537 29.5996 28.1601 30.5002 27.2081 31.2765C26.2093 32.0839 25.2106 32.8758 24.1493 33.7298C24.321 33.8695 24.4771 34.0093 24.6331 34.1335C25.4603 34.7546 26.2718 35.3756 27.1145 35.9812C27.4266 36.1986 27.5515 36.4625 27.5671 36.8507C27.5983 38.0307 27.2237 39.0089 26.3498 39.8163C25.8816 40.2511 25.4134 40.6859 24.8828 41.1827C25.6631 41.5864 25.7568 42.2075 25.6943 42.9062C25.6319 43.5273 25.2418 43.9465 24.6175 43.9931C24.4615 44.0086 24.3054 43.9931 24.1493 43.9931C17.4387 43.9931 10.7125 43.9931 4.00187 43.9931C3.09672 43.9931 2.65975 43.7602 2.48808 43.2012C2.23838 42.4249 2.47248 41.7417 3.23717 41.1827C2.70657 40.6859 2.14475 40.2356 1.69217 39.6921C1.28641 39.1953 0.911866 38.6208 0.708987 38.0152C0.428077 37.1768 0.490502 36.3538 1.17717 35.593C2.12914 34.5527 2.95626 33.3882 3.86142 32.3013C4.11112 31.9908 4.14233 31.7889 3.89263 31.4628C2.75339 29.9101 1.64535 28.3419 0.53732 26.7892C-0.242985 25.7023 -0.18056 25.0347 0.771411 24.0875C2.09793 22.7522 3.42445 21.4169 4.78218 20.0971C5.04748 19.8331 5.07869 19.6313 4.89142 19.3052C3.86142 17.4886 2.89384 15.6253 1.83263 13.8242C1.47369 13.2031 1.5205 12.6907 1.81702 12.1473C1.97308 11.8523 2.19157 11.5573 2.42566 11.3088C3.97066 9.60088 5.54688 7.92397 7.1387 6.24706C7.23233 6.13837 7.32597 6.01416 7.46643 5.85889ZM5.70294 20.4698C4.22036 21.9448 2.7846 23.3578 1.34884 24.7863C0.771411 25.3607 0.755805 25.5626 1.23959 26.2303C2.34763 27.7985 3.48687 29.3512 4.5793 30.9194C4.829 31.2765 5.04748 31.3852 5.48445 31.2765C7.919 30.702 10.3692 30.1741 12.8193 29.6307C13.147 29.553 13.428 29.5686 13.5216 29.9412C13.6152 30.2983 13.3811 30.4691 13.0534 30.5468C12.9442 30.5623 12.8349 30.6089 12.7101 30.6244C10.6969 31.0747 8.69931 31.5871 6.67052 31.9287C5.40642 32.146 4.51687 32.705 3.8146 33.7453C3.28399 34.5372 2.62854 35.2514 1.98869 36.0743C9.88537 36.0743 17.6728 36.0743 25.6163 36.0743C24.8984 35.5309 24.3054 35.0496 23.6655 34.6303C23.3534 34.4285 22.9789 34.2422 22.6199 34.2111C19.8265 33.9627 17.033 33.7608 14.2395 33.5435C13.2719 33.4658 12.3043 33.4192 11.3367 33.295C11.1339 33.264 10.8373 33.0155 10.8061 32.8447C10.7437 32.4876 11.0558 32.3789 11.3836 32.3945C11.4772 32.3945 11.5708 32.41 11.6801 32.41C15.3787 32.705 19.093 33 22.7916 33.264C23.0101 33.2795 23.291 33.1863 23.4783 33.0466C24.5239 32.2392 25.5539 31.4163 26.5839 30.5778C27.1613 30.112 27.1925 29.8015 26.7243 29.2114C25.9284 28.2022 25.1325 27.2085 24.3054 26.2303C24.1337 26.0129 23.8216 25.8421 23.5407 25.7955C22.1674 25.5937 20.794 25.4539 19.4363 25.2831C18.5936 25.1744 17.7352 25.0968 16.8925 24.9415C16.6896 24.9105 16.3931 24.631 16.3931 24.4602C16.3619 24.1186 16.674 23.9944 17.0017 24.041C17.0954 24.0565 17.189 24.072 17.2983 24.0875C19.4051 24.3515 21.5119 24.6155 23.6031 24.8639C23.7748 24.8794 24.0557 24.8173 24.1337 24.6931C24.8828 23.4354 25.6007 22.1467 26.3654 20.8269C18.5468 18.5134 10.7905 16.2154 2.87823 13.8708C3.95505 15.8272 4.95384 17.6438 5.96824 19.445C6.06188 19.6002 6.23354 19.7245 6.374 19.8487C8.27794 21.479 10.1819 23.1093 12.0858 24.7397C12.3823 24.9881 12.8817 25.2521 12.4916 25.7023C12.0858 26.1681 11.7581 25.6713 11.4772 25.4229C9.55764 23.777 7.6537 22.1311 5.70294 20.4698ZM14.021 43.0615C17.4075 43.0615 20.794 43.046 24.1806 43.077C24.6799 43.077 24.7736 42.8752 24.7424 42.4559C24.7112 42.0056 24.3678 42.1454 24.1337 42.1454C17.3919 42.1454 10.6657 42.1454 3.92384 42.1454C3.84581 42.1454 3.75218 42.1143 3.68975 42.1454C3.5649 42.2386 3.37763 42.3472 3.34642 42.487C3.23717 42.9373 3.44005 43.077 3.90824 43.077C7.27915 43.046 10.6501 43.0615 14.021 43.0615ZM26.7712 9.80273C20.4819 7.87739 14.2395 5.95205 7.95021 4.0267C7.85658 4.33724 7.76294 4.6012 7.66931 4.89621C13.9742 6.82156 20.2166 8.7469 26.5059 10.6722C26.5995 10.3617 26.6775 10.1133 26.7712 9.80273Z" fill="white"/>
</svg>
