<svg width="54" height="55" viewBox="0 0 54 55" fill="none" xmlns="http://www.w3.org/2000/svg">
<path d="M46.5256 34.7113C47.9928 34.7145 49.4261 35.1574 50.6438 35.984C51.8616 36.8106 52.8091 37.9837 53.3663 39.3547C53.9235 40.7257 54.0653 42.2329 53.7737 43.6853C53.4822 45.1378 52.7704 46.4702 51.7286 47.5137C50.6868 48.5572 49.3617 49.2649 47.9214 49.5472C46.481 49.8294 44.9901 49.6735 43.6376 49.0992C42.285 48.5248 41.1316 47.5579 40.3236 46.3209C39.5155 45.084 39.089 43.6326 39.0983 42.1506C39.1106 40.1705 39.8991 38.276 41.2911 36.8818C42.6831 35.4876 44.5652 34.7071 46.5256 34.7113Z" fill="white"/>
<path d="M13.7802 44.3365C16.5985 44.3365 19.4168 44.3365 22.2351 44.3365C23.4413 44.3479 24.6072 44.7761 25.5388 45.55C26.4704 46.3239 27.1115 47.3967 27.3554 48.5899C27.5993 49.7831 27.4313 51.0247 26.8793 52.108C26.3273 53.1913 25.4247 54.0509 24.3216 54.5439C23.6309 54.8365 22.8906 54.9913 22.1417 55C16.5362 55 10.9151 55 5.29407 55C3.89 55 2.54343 54.4366 1.5506 53.4337C0.557767 52.4309 0 51.0707 0 49.6525C0 48.2343 0.557767 46.8741 1.5506 45.8713C2.54343 44.8684 3.89 44.3051 5.29407 44.3051H13.7802V44.3365ZM8.42381 49.6997C8.42381 49.0776 8.24116 48.4694 7.89897 47.9521C7.55679 47.4348 7.07042 47.0317 6.50138 46.7936C5.93234 46.5555 5.30619 46.4932 4.7021 46.6146C4.09801 46.7359 3.54312 47.0355 3.1076 47.4754C2.67208 47.9154 2.37548 48.4758 2.25532 49.086C2.13516 49.6962 2.19683 50.3287 2.43253 50.9034C2.66824 51.4782 3.06739 51.9695 3.57951 52.3151C4.09163 52.6608 4.69372 52.8453 5.30964 52.8453C6.13557 52.8453 6.92767 52.5138 7.51169 51.9239C8.09571 51.334 8.42381 50.5339 8.42381 49.6997ZM16.8943 49.6997C16.8943 49.0776 16.7117 48.4694 16.3695 47.9521C16.0273 47.4348 15.5409 47.0317 14.9719 46.7936C14.4029 46.5555 13.7767 46.4932 13.1726 46.6146C12.5685 46.7359 12.0136 47.0355 11.5781 47.4754C11.1426 47.9154 10.846 48.4758 10.7258 49.086C10.6057 49.6962 10.6673 50.3287 10.9031 50.9034C11.1388 51.4782 11.5379 51.9695 12.05 52.3151C12.5621 52.6608 13.1642 52.8453 13.7802 52.8453C14.1904 52.8453 14.5967 52.7634 14.9755 52.6043C15.3544 52.4453 15.6983 52.2121 15.9877 51.9184C16.2771 51.6246 16.5062 51.276 16.6618 50.8925C16.8173 50.5091 16.8964 50.0984 16.8943 49.684V49.6997ZM22.1728 52.8453C22.784 52.8449 23.3816 52.6628 23.8911 52.3218C24.4006 51.9808 24.7995 51.4959 25.038 50.9275C25.2766 50.3591 25.3443 49.7324 25.2327 49.1254C25.1211 48.5184 24.8352 47.958 24.4105 47.514C23.9858 47.07 23.4412 46.7621 22.8444 46.6286C22.2477 46.4951 21.6253 46.5419 21.0547 46.7631C20.4841 46.9844 19.9906 47.3704 19.6357 47.873C19.2807 48.3756 19.0801 48.9726 19.0587 49.5896C19.0375 50.0157 19.1025 50.4417 19.2495 50.8417C19.3965 51.2417 19.6225 51.6073 19.9138 51.9162C20.2052 52.2252 20.5556 52.4711 20.944 52.6389C21.3323 52.8067 21.7504 52.893 22.1728 52.8924V52.8453Z" fill="white"/>
<path d="M23.216 34.6012V37.904H4.2508V30.4805H9.49816C9.49816 31.1096 9.49816 31.7387 9.49816 32.3678C9.49816 32.9969 9.84072 33.5788 10.6815 33.6418L22.7801 34.5854L23.216 34.6012Z" fill="white"/>
<path d="M21.1444 25.7779C21.2486 24.1695 20.8549 22.5682 20.0179 21.1958C19.181 19.8235 17.9422 18.748 16.4732 18.1185C16.6152 17.9874 16.766 17.8665 16.9248 17.7567C19.9299 15.7279 22.8417 13.8248 25.7534 11.8274C25.8185 11.7572 25.8986 11.7031 25.9876 11.6692C26.0766 11.6352 26.1721 11.6223 26.2668 11.6314C26.3615 11.6405 26.4529 11.6714 26.534 11.7217C26.615 11.7721 26.6836 11.8405 26.7344 11.9217C28.1202 13.3687 29.5215 14.7685 30.9852 16.2469L21.1444 25.7779Z" fill="white"/>
<path d="M19.012 32.1477L11.647 31.5815V19.8328C14.8701 19.3452 17.6885 20.226 18.7784 23.576C18.8719 23.8727 18.9345 24.1784 18.9653 24.4882C18.9885 24.8181 18.9885 25.1492 18.9653 25.4791L19.012 32.1477Z" fill="white"/>
<path d="M32.5893 14.7212L28.1672 10.2388L28.572 9.93995C31.873 7.7066 35.174 5.50471 38.4439 3.25563C38.8332 3.00399 39.0512 2.97253 39.3782 3.25563C40.1567 4.08921 40.9352 4.82842 41.8383 5.70917L32.5893 14.7212Z" fill="white"/>
<path d="M0.528946 41.364C1.83419 40.5565 3.32746 40.1116 4.85763 40.0743C10.7642 40.0743 16.6655 40.0743 22.5616 40.0743C24.101 40.1156 25.6033 40.56 26.9215 41.364C26.4076 41.8359 25.9561 42.2762 25.4734 42.6852C25.3066 42.7415 25.1263 42.7415 24.9595 42.6852C23.8738 42.428 22.7703 42.2545 21.6585 42.1661C16.3489 42.1661 11.0548 42.1661 5.74517 42.1661C4.65537 42.2581 3.5732 42.4262 2.50644 42.6694C2.31652 42.7168 2.11585 42.6886 1.94589 42.5908C1.47877 42.2605 1.02721 41.8359 0.528946 41.364Z" fill="white"/>
<path d="M45.4821 9.43665H47.5063V28.31H45.4821V9.43665Z" fill="white"/>
<path d="M9.46627 19.7856V28.3101H6.35211V19.7856H9.46627Z" fill="white"/>
<path d="M42.2586 0L48.0509 5.86647L46.4938 7.31343L40.7949 1.57278L42.2586 0Z" fill="white"/>
<path d="M47.5375 30.4805V32.5565H45.4821V30.4805H47.5375Z" fill="white"/>
<path d="M13.702 50.7536C13.9817 50.758 14.252 50.652 14.4556 50.4581C14.6591 50.2643 14.7798 49.9979 14.7919 49.7156C14.798 49.5042 14.7419 49.2957 14.6306 49.1165C14.5194 48.9373 14.3581 48.7955 14.1671 48.7089C13.9761 48.6223 13.7639 48.5948 13.5575 48.63C13.351 48.6652 13.1595 48.7614 13.0072 48.9065C12.8548 49.0515 12.7485 49.239 12.7016 49.4451C12.6547 49.6512 12.6694 49.8667 12.7438 50.0644C12.8181 50.2621 12.9488 50.4331 13.1194 50.5558C13.2899 50.6785 13.4927 50.7473 13.702 50.7536Z" fill="white"/>
<path d="M6.30588 49.6841C6.306 49.9624 6.19873 50.2297 6.00685 50.4294C5.81497 50.6291 5.55359 50.7454 5.27821 50.7536C4.99858 50.7537 4.72992 50.6437 4.5293 50.4469C4.32869 50.2501 4.21193 49.9821 4.20382 49.6998C4.18568 49.5495 4.19933 49.3971 4.24386 49.2526C4.28839 49.108 4.36279 48.9747 4.46214 48.8613C4.56149 48.748 4.68352 48.6573 4.82018 48.5951C4.95683 48.533 5.10499 48.5009 5.25485 48.5009C5.40472 48.5009 5.55287 48.533 5.68953 48.5951C5.82618 48.6573 5.94822 48.748 6.04757 48.8613C6.14692 48.9747 6.22132 49.108 6.26585 49.2526C6.31038 49.3971 6.32402 49.5495 6.30588 49.6998V49.6841Z" fill="white"/>
<path d="M13.702 50.7536C13.4927 50.7473 13.2899 50.6785 13.1194 50.5558C12.9488 50.4331 12.8181 50.2621 12.7438 50.0644C12.6694 49.8667 12.6547 49.6512 12.7016 49.4451C12.7485 49.239 12.8548 49.0515 13.0072 48.9065C13.1595 48.7614 13.351 48.6652 13.5575 48.63C13.7639 48.5948 13.9761 48.6223 14.1671 48.7089C14.3581 48.7955 14.5194 48.9373 14.6306 49.1165C14.7419 49.2957 14.798 49.5042 14.7919 49.7156C14.7879 49.8561 14.7565 49.9943 14.6995 50.1225C14.6426 50.2507 14.5611 50.3664 14.4599 50.4628C14.3587 50.5592 14.2396 50.6345 14.1096 50.6844C13.9795 50.7343 13.841 50.7578 13.702 50.7536Z" fill="white"/>
<path d="M22.2039 50.7536C21.9939 50.7599 21.7869 50.7028 21.6091 50.5899C21.4313 50.4769 21.2908 50.3131 21.2054 50.1192C21.1201 49.9253 21.0937 49.7102 21.1297 49.5012C21.1658 49.2922 21.2625 49.0987 21.4077 48.9453C21.5529 48.792 21.74 48.6858 21.9451 48.6401C22.1503 48.5945 22.3642 48.6115 22.5597 48.6891C22.7553 48.7666 22.9235 48.9011 23.0432 49.0755C23.1628 49.2499 23.2284 49.4563 23.2316 49.6684C23.2358 49.9494 23.1303 50.2208 22.938 50.4239C22.7457 50.6269 22.482 50.7454 22.2039 50.7536Z" fill="white"/>
</svg>
