<svg width="58" height="45" viewBox="0 0 58 45" fill="none" xmlns="http://www.w3.org/2000/svg">
<g clip-path="url(#clip0_533_628)">
<path d="M6.66354 31.5253C6.66354 30.9137 6.66354 30.4287 6.66354 29.8172C6.11528 29.8172 5.5881 29.8383 5.08201 29.8172C4.04874 29.775 3.35286 29.0792 3.35286 28.1513C3.35286 27.2235 4.09091 26.5276 5.08201 26.4644C5.29288 26.4644 5.50375 26.4644 5.71462 26.4644C20.9817 26.4644 36.2488 26.4644 51.5159 26.4644C51.6425 26.4644 51.769 26.4644 51.9166 26.4644C53.0975 26.4854 53.8777 27.1391 53.8777 28.1513C53.8777 29.1635 53.1186 29.7961 51.9166 29.8172C51.4949 29.8172 51.0731 29.8172 50.6092 29.8172C50.6092 30.3866 50.6092 30.8927 50.6092 31.5253C51.4527 31.5253 52.3173 31.5042 53.1607 31.5253C55.2695 31.5885 57.0408 33.2122 57.2095 35.2155C57.4203 37.4297 56.1129 39.3908 53.9831 39.7914C52.8233 40.0023 51.6214 39.918 50.4405 39.8969C49.8922 39.8969 49.5759 40.0234 49.2596 40.5295C47.5726 43.313 45.0844 44.9156 41.7948 44.9156C33.0014 44.9578 24.2081 44.9789 15.4358 44.9156C12.1673 44.8945 9.65792 43.313 7.97095 40.5295C7.67573 40.0656 7.40159 39.8758 6.87441 39.8969C5.92549 39.9391 4.97657 39.9391 4.02765 39.8969C1.72915 39.8125 0 37.9779 0 35.6794C0.0210872 33.402 1.79241 31.5674 4.09091 31.5042C4.91331 31.5042 5.7568 31.5253 6.66354 31.5253ZM17.903 39.918C18.5778 39.918 19.2737 39.918 19.9485 39.918C21.1293 39.8969 21.8252 39.2853 21.8463 38.2732C21.8674 37.2399 21.1293 36.5651 19.9274 36.5651C18.6832 36.5651 17.4602 36.5651 16.216 36.5651C15.4991 36.5651 15.1406 36.2277 15.1406 35.5107C15.1406 34.7938 15.1617 34.0979 15.1406 33.3809C15.0984 32.2422 14.4236 31.5042 13.4325 31.5253C12.4836 31.5464 11.7877 32.2633 11.7666 33.3388C11.7456 34.119 11.7245 34.9203 11.7666 35.7005C11.8721 38.1466 13.6434 39.8547 16.0895 39.918C16.701 39.9391 17.2915 39.918 17.903 39.918Z" fill="white"/>
<path d="M10.6068 16.0684C11.4292 15.9208 12.1884 15.5834 12.9053 15.1617C13.6645 15.9208 14.4236 16.68 15.1828 17.4391C16.0052 17.2493 16.8486 17.1439 17.7343 17.1439C18.2826 17.1439 18.8098 17.1439 19.358 17.1228C17.9452 15.71 16.5534 14.3182 15.1617 12.9265C15.2038 12.8421 15.246 12.7578 15.2882 12.6945C16.8486 9.93208 16.4058 6.6003 14.1917 4.34398C12.9053 3.03657 11.619 1.75026 10.3327 0.485027C9.67901 -0.168675 8.79335 -0.168675 8.13964 0.485027C5.5881 3.03657 3.03655 5.58812 0.485004 8.13967C-0.147611 8.77228 -0.147611 9.67903 0.463917 10.3116C1.79241 11.6612 3.09981 13.0319 4.49157 14.3182C6.22071 15.9419 8.28725 16.4902 10.6068 16.0684ZM8.79335 4.4705C8.8777 4.32289 9.06748 4.21745 9.21509 4.09093C9.38379 4.19637 9.5314 4.23854 9.63683 4.34398C10.6279 5.33507 11.619 6.30508 12.589 7.29618C12.821 7.54923 12.8421 7.82336 12.6312 8.03423C12.4203 8.2451 12.1462 8.2451 11.8932 7.99206C10.9021 7.00096 9.91097 6.00986 8.91987 5.03985C8.75117 4.89224 8.66682 4.68137 8.79335 4.4705ZM6.60028 6.62139C6.79007 6.43161 7.00094 6.41052 7.21181 6.53704C7.29616 6.57922 7.35942 6.64248 7.42268 6.72683C8.35052 7.65466 9.29944 8.60359 10.2273 9.53142C10.3538 9.65794 10.4381 9.82664 10.5014 9.91099C10.5014 10.3538 10.1429 10.5858 9.82662 10.4593C9.74227 10.4171 9.65792 10.3538 9.57357 10.2695C8.60356 9.29946 7.63355 8.35054 6.66354 7.38053C6.62137 7.33836 6.55811 7.27509 6.51593 7.21183C6.4105 7.00096 6.43158 6.79009 6.60028 6.62139ZM8.0553 12.6312C7.84442 12.8421 7.5492 12.821 7.31725 12.5891C6.32615 11.598 5.33505 10.6069 4.34396 9.63686C4.17526 9.46816 4.09091 9.25729 4.21743 9.04642C4.30178 8.89881 4.49157 8.79337 4.63918 8.66685C4.82896 8.77228 4.95548 8.83554 5.06092 8.91989C6.05202 9.91099 7.04311 10.9021 8.03421 11.8932C8.26617 12.1462 8.26617 12.4204 8.0553 12.6312Z" fill="white"/>
<path d="M48.5848 23.0904C35.2156 23.0904 22.0361 23.0904 8.83552 23.0904C8.79335 23.0271 8.73009 22.9849 8.68791 22.9217C9.42596 22.1625 10.0797 21.3401 10.881 20.6654C12.8632 19.0206 15.1617 18.1138 17.7554 18.0927C20.4967 18.0716 23.217 18.0716 25.9583 18.0716C26.2324 18.0716 26.5277 18.0716 26.865 18.0716C26.865 17.4812 26.865 16.9751 26.865 16.3636C26.359 16.3636 25.8739 16.3847 25.3889 16.3636C24.3346 16.3425 23.5754 15.6255 23.5965 14.6766C23.5965 13.7488 24.3346 13.0318 25.3468 13.0318C27.5609 13.0107 29.7751 13.0107 31.9681 13.0318C33.0014 13.0529 33.6973 13.7488 33.6762 14.6977C33.6762 15.6255 32.9592 16.3214 31.9471 16.3636C31.441 16.3847 30.956 16.3636 30.4077 16.3636C30.4077 16.9118 30.4077 17.4179 30.4077 18.0716C30.6818 18.0716 30.956 18.0716 31.2301 18.0716C34.0136 18.0716 36.8182 18.0295 39.6017 18.0927C43.06 18.1771 45.8646 19.6743 48.0576 22.3312C48.2053 22.521 48.3318 22.753 48.5848 23.0904Z" fill="white"/>
<path d="M34.3088 13.4325C34.5197 13.812 34.6251 14.2338 34.6251 14.6977C34.6251 15.8153 33.9503 16.7221 32.9592 17.1016C33.2334 17.1016 33.5075 17.1016 33.7816 17.1016C33.8449 17.1016 33.9292 17.1016 33.9925 17.1016C34.7306 16.3636 35.4686 15.6255 36.2067 14.8875C36.9447 15.6255 37.6828 16.3636 38.4208 17.1016C38.8215 17.1016 39.201 17.1227 39.6017 17.1227C40.8247 17.1438 41.9845 17.3547 43.06 17.7132C47.0665 13.7066 51.0942 9.67895 55.1429 5.63022C55.1008 5.58804 55.0164 5.5037 54.9531 5.41935C53.3927 3.8589 51.8533 2.29845 50.2929 0.759084C49.2596 -0.274187 48.0366 -0.274187 47.0244 0.759084C45.1687 2.61475 43.313 4.47042 41.4574 6.30501C39.1589 8.60351 36.8393 10.8809 34.5408 13.1794C34.5408 13.1794 34.5197 13.1794 34.5197 13.2005C34.4564 13.2849 34.3932 13.3481 34.3088 13.4325Z" fill="white"/>
<path d="M56.8932 7.3805C56.5769 7.0642 56.2816 6.74789 56.0075 6.47375C52.0853 10.396 48.1842 14.2971 44.283 18.1982C44.9157 18.4934 45.5483 18.8519 46.1387 19.2526C49.7235 15.6678 53.3294 12.0619 56.9142 8.47704C57.336 8.01312 57.336 7.82333 56.8932 7.3805Z" fill="white"/>
</g>
<defs>
<clipPath id="clip0_533_628">
<rect width="57.2306" height="45" fill="white"/>
</clipPath>
</defs>
</svg>
