<svg width="51" height="51" viewBox="0 0 51 51" fill="none" xmlns="http://www.w3.org/2000/svg">
<path d="M0.2 39.9815C0.3 39.4815 0.4 38.8815 0.6 38.3815C1.2 36.3815 2.3 34.7815 3.9 33.5815C4.1 33.4815 4.2 33.2815 4.4 33.1815C5.6 32.2815 6.9 31.9815 8.2 31.7815C9.5 31.6815 10.7 31.6815 12 32.0815C12.3 32.1815 12.5 32.2815 12.8 32.4815C12.9 32.4815 13 32.5815 13.1 32.5815C13 32.5815 13 32.4815 12.9 32.4815C11.4 31.4815 10.4 29.9815 9.8 28.3815C9.8 28.2815 9.8 28.1815 9.8 28.0815C9.4 26.9815 9.2 25.8815 9.3 24.7815C9.4 22.7815 10.1 21.0815 11.3 19.5815C11.9 18.7815 12.7 18.0815 13.6 17.5815C13.7 17.4815 13.9 17.3815 14 17.2815C14.8 16.6815 15.7 16.4815 16.7 16.2815C19.4 15.7815 21.8 16.3815 24 18.0815C25.9 19.5815 27 21.4815 27.4 23.7815C27.7 25.8815 27.4 27.8815 26.3 29.7815C25.9 30.3815 25.5 30.9815 25 31.4815C24.7 31.8815 24.3 32.1815 23.8 32.4815C23.7 32.4815 23.6 32.5815 23.6 32.6815C23.7 32.6815 23.8 32.5815 23.9 32.4815C24.7 32.0815 25.5 31.9815 26.3 31.8815C30.8 31.4815 34.2 33.9815 35.8 37.5815C36.6 39.6815 36.7 41.7815 36 43.9815C35.9 44.1815 35.8 44.3815 35.8 44.5815C35.1 46.1815 34.1 47.4815 32.6 48.5815C31.3 49.4815 29.9 50.0815 28.2 50.1815C27.6 50.1815 27 50.1815 26.3 50.1815C25.4 50.0815 24.4 49.9815 23.6 49.5815C20.7 48.2815 18.9 46.0815 18.2 42.9815C18.1 42.5815 18.2 42.2815 18.2 41.8815C18.2 41.4815 18.2 41.0815 18.2 40.6815C18.1 41.0815 18.2 41.4815 18.2 41.8815C18.2 43.7815 17.4 45.3815 16.3 46.8815C15.1 48.3815 13.6 49.3815 11.8 49.9815C11.2 50.1815 10.7 50.1815 10.1 50.2815C9.5 50.2815 8.9 50.2815 8.2 50.2815C6.8 50.1815 5.4 49.7815 4.2 48.9815C2.2 47.6815 0.9 45.8815 0.2 43.5815C0.1 43.0815 0.1 42.5815 0 42.1815C0.2 41.2815 0.2 40.6815 0.2 39.9815Z" fill="url(#paint0_linear_544_633)"/>
<path d="M50.2 16.6814C49.5 12.8814 45.6 10.4814 41.9 11.6814C41.8 11.6814 41.6 11.7814 41.5 11.7814C41.1 11.6814 41.1 12.0814 40.9 12.1814C38.9 14.5814 36.9 16.9814 34.8 19.4814C32.6 22.0814 30.4 24.7814 28.2 27.3814C27.5 28.1814 26.9 28.9814 26.2 29.7814C25.5 30.7814 24.8 31.6814 23.9 32.3814C23.9 32.4814 23.9 32.4814 24 32.4814C24.2 32.3814 24.3 32.3814 24.5 32.2814C27.4 31.3814 29.8 31.7814 32.2 33.4814C33.7 34.4814 35 35.8814 35.7 37.4814C36.1 38.6814 36.2 39.6814 36.2 40.9814C36.2 41.8814 36.3 42.8814 36 43.7814C36 43.8814 36 43.8814 36.1 43.8814C37.7 41.1814 39.2 38.5814 40.8 35.8814C42.8 32.3814 44.9 28.8814 46.9 25.3814C48.1 23.1814 49.7 21.1814 50.3 18.6814C50.3 17.9814 50.3 17.3814 50.3 16.6814C50.2 16.8814 50.2 16.7814 50.2 16.6814Z" fill="url(#paint1_linear_544_633)"/>
<path d="M40.6 0.981497C38.9 -0.0185031 37.1 -0.318503 35.2 0.381497C33.8 0.781497 32.9 1.6815 31.8 2.4815C28.9 4.7815 26.1 7.1815 23.3 9.4815C20.2 12.0815 17 14.5815 13.9 17.1815C13.9 17.2815 13.9 17.2815 14 17.2815C15.8 16.3815 17.7 16.1815 19.7 16.4815C22.1 16.7815 23.9 17.7815 25.4 19.6815C26.4 20.8815 26.9 22.2815 27.2 23.7815C27.2 24.0815 27.3 24.3815 27.3 24.6815C27.4 26.4815 27 28.2815 26.1 29.8815C26.2 29.9815 26.2 29.8815 26.3 29.8815C26.7 29.4815 27 28.9815 27.4 28.5815C28.4 27.3815 29.4 26.0815 30.5 24.8815C31.5 23.6815 32.6 22.3815 33.6 21.1815C34.7 19.8815 35.7 18.5815 36.8 17.3815C37.8 16.1815 38.8 14.8815 39.9 13.6815C40.4 13.0815 40.8 12.4815 41.4 11.9815C41.6 11.4815 42 11.1815 42.4 10.7815C44.7 7.3815 43.9 2.9815 40.6 0.981497Z" fill="url(#paint2_linear_544_633)"/>
<path d="M4.30002 33.1815C4.20002 33.3815 4.10002 33.5815 3.90002 33.5815C4.00002 33.3815 4.10002 33.2815 4.30002 33.1815Z" fill="#D4E1ED"/>
<path d="M13.9 17.1815C13.9 17.3815 13.8 17.4815 13.6 17.4815C13.7 17.3815 13.8 17.2815 13.9 17.1815Z" fill="#CCDAE8"/>
<path d="M33.8 39.5815C33.1 35.8815 29 33.4815 25.5 34.6815C22.6 35.4815 20.5 38.4815 20.9 41.6815C21.2 44.1815 23 46.4815 25.5 47.1815C26.4 47.5815 27.4 47.5815 28.3 47.3815C32.1 46.8815 34.6 43.3815 33.8 39.5815Z" fill="url(#paint3_linear_544_633)"/>
<path d="M15.6 39.3815C14.7 35.7815 10.8 33.4815 7.29996 34.6815C4.69996 35.4815 2.59996 38.0815 2.69996 41.1815C2.79996 43.8815 4.69996 46.3815 7.29996 47.0815C8.19996 47.4815 9.19996 47.4815 10.2 47.3815C14.1 46.7815 16.5 43.1815 15.6 39.3815Z" fill="url(#paint4_linear_544_633)"/>
<path d="M24.7 23.8815C24 20.2815 20 17.8815 16.5 18.9815C13.8 19.7815 11.8 22.0815 11.7 25.2815C11.7 28.2815 13.6 30.7815 16.5 31.5815C17.5 31.8815 18.5 31.9815 19.5 31.7815C23.2 30.8815 25.5 27.5815 24.7 23.8815Z" fill="url(#paint5_linear_544_633)"/>
<path d="M18.4 41.7814C18.3 41.7814 18.3 41.7814 18.4 41.7814C18.3 41.3814 18.3 40.8814 18.3 40.4814H18.4C18.4 40.8814 18.4 41.3814 18.4 41.7814Z" fill="#D8E6F2"/>
<path d="M23.9 32.3816L24 32.4816C23.9 32.5816 23.7 32.6816 23.5 32.6816C23.6 32.5816 23.7 32.4816 23.9 32.3816Z" fill="#CBDAE9"/>
<path d="M22 33.6816C22 33.3816 22.2 33.3816 22.4 33.3816C22.3 33.4816 22.2 33.5816 22 33.6816Z" fill="#D2E1EE"/>
<path d="M36 43.8816C36 43.9816 36 43.9816 36 43.8816C36 44.0816 35.9 44.2816 35.8 44.3816C35.8 44.1816 35.8 44.0816 36 43.8816Z" fill="#C5D4E3"/>
<path d="M10.7 30.1815C10.3 29.5815 10 28.7815 9.70005 28.1815C8.70005 29.0815 7.70005 30.0815 6.70005 30.9815C5.90005 31.7815 5.10005 32.4815 4.30005 33.2815C4.30005 33.3815 4.30005 33.3815 4.40005 33.3815C5.80005 32.4815 7.20005 31.9815 8.80005 31.8815C10.2 31.7815 11.6 32.0815 12.9 32.5815C13 32.6815 13.1 32.7815 13.3 32.6815C13.1 32.5815 13 32.4815 12.9 32.4815C12 31.8815 11.3 31.0815 10.7 30.1815Z" fill="url(#paint6_linear_544_633)"/>
<path d="M21.9 33.5815C19.5 34.4815 17.1 34.4815 14.8 33.5815C14.7 33.4815 14.6 33.3815 14.3 33.3815C14.4 33.4815 14.5 33.5815 14.7 33.6815C16.8 35.2815 18 37.4815 18.4 39.9815C18.7 37.3815 19.9 35.2815 21.9 33.5815C22 33.5815 22 33.5815 21.9 33.5815Z" fill="url(#paint7_linear_544_633)"/>
<defs>
<linearGradient id="paint0_linear_544_633" x1="0.2" y1="33.0264" x2="36.613" y2="33.0264" gradientUnits="userSpaceOnUse">
<stop stop-color="#DEDEDE"/>
<stop offset="0.5214" stop-color="white"/>
<stop offset="1" stop-color="#C4C4C4"/>
</linearGradient>
<linearGradient id="paint1_linear_544_633" x1="34.1464" y1="22.358" x2="44.0363" y2="30.0421" gradientUnits="userSpaceOnUse">
<stop stop-color="#DEDEDE"/>
<stop offset="0.5" stop-color="#898787"/>
<stop offset="1" stop-color="#C4C4C4"/>
</linearGradient>
<linearGradient id="paint2_linear_544_633" x1="26.1218" y1="8.459" x2="35.5665" y2="17.3038" gradientUnits="userSpaceOnUse">
<stop stop-color="#E8E8E8"/>
<stop offset="0.5" stop-color="#898787"/>
<stop offset="1" stop-color="#C4C4C4"/>
</linearGradient>
<linearGradient id="paint3_linear_544_633" x1="20.8682" y1="40.9304" x2="33.9619" y2="40.9304" gradientUnits="userSpaceOnUse">
<stop stop-color="#404041"/>
<stop offset="0.9813" stop-color="#8C8D8E"/>
</linearGradient>
<linearGradient id="paint4_linear_544_633" x1="2.71756" y1="40.9287" x2="15.826" y2="40.9287" gradientUnits="userSpaceOnUse">
<stop stop-color="#404041"/>
<stop offset="0.9813" stop-color="#8C8D8E"/>
</linearGradient>
<linearGradient id="paint5_linear_544_633" x1="11.7774" y1="25.2473" x2="24.8788" y2="25.2473" gradientUnits="userSpaceOnUse">
<stop stop-color="#404041"/>
<stop offset="0.9813" stop-color="#8C8D8E"/>
</linearGradient>
<linearGradient id="paint6_linear_544_633" x1="6.57035" y1="30.4504" x2="14.3166" y2="35.0525" gradientUnits="userSpaceOnUse">
<stop stop-color="#DEDEDE"/>
<stop offset="0.5" stop-color="#898787"/>
<stop offset="1" stop-color="#C4C4C4"/>
</linearGradient>
<linearGradient id="paint7_linear_544_633" x1="15.1304" y1="33.4743" x2="21.5528" y2="37.7122" gradientUnits="userSpaceOnUse">
<stop stop-color="#DEDEDE"/>
<stop offset="0.5179" stop-color="#898787"/>
<stop offset="1" stop-color="#C4C4C4"/>
</linearGradient>
</defs>
</svg>
