<svg width="42" height="42" viewBox="0 0 42 42" fill="none" xmlns="http://www.w3.org/2000/svg">
<path d="M40.9323 0L23.1603 17.772C23.0092 17.9018 22.8193 17.9777 22.6203 17.988H1.51236L1.11636 18L1.47636 17.604L18.7323 0.336C18.8403 0.228 18.9363 0.108 19.0323 0H40.9323Z" fill="white"/>
<path d="M0 19.5242H22.464V22.5002H22.008C20.46 22.5002 18.912 22.5002 17.376 22.5002C16.1626 22.534 15.009 23.0343 14.1552 23.897C13.3014 24.7598 12.8131 25.9185 12.792 27.1322C12.696 29.5922 12.708 32.0762 12.792 34.5482C12.868 35.7065 13.3696 36.7958 14.2003 37.6065C15.031 38.4173 16.1322 38.8923 17.292 38.9402C18.84 39.0002 20.388 38.9402 21.924 38.9402H22.464V42.0002H0V38.9642C1.644 38.9642 3.276 39.0242 4.92 38.9642C5.56683 38.9647 6.20709 38.8344 6.80233 38.5813C7.39757 38.3282 7.93551 37.9573 8.38383 37.4911C8.83216 37.0248 9.18162 36.4728 9.41123 35.8681C9.64084 35.2633 9.74587 34.6185 9.71999 33.9722C9.71999 31.8122 9.71999 29.6522 9.71999 27.4922C9.71697 27.125 9.67677 26.7592 9.59999 26.4002C9.38799 25.2886 8.79008 24.2877 7.91183 23.5741C7.03357 22.8605 5.93143 22.4801 4.8 22.5002C3.216 22.5002 1.632 22.5002 0 22.5002V19.5242Z" fill="white"/>
<path d="M41.9998 3.44411L24.4679 20.9761C24.3558 21.113 24.2592 21.2619 24.1799 21.4201L24.0119 21.3001C24.0119 20.5921 24.0119 19.8721 24.0119 19.1641C24.0119 19.0201 24.1679 18.8881 24.2759 18.7681L38.3999 4.71611L41.9998 1.06812V3.44411Z" fill="white"/>
<path d="M42.0003 22.2359C41.8923 22.3319 41.7723 22.4159 41.6643 22.5239L28.7043 35.9999C27.2523 37.4999 25.8123 39.0239 24.3723 40.5479C24.2763 40.6439 24.2043 40.7519 24.1203 40.8479L24.0003 40.7999C24.0003 40.0919 24.0003 39.3719 24.0003 38.6639C24.0003 38.5679 24.1083 38.4719 24.1803 38.3999L41.6643 20.1479L42.0003 19.8479V22.2359Z" fill="white"/>
<path d="M32.1361 15.432C32.4464 16.3186 32.9993 17.1003 33.7321 17.688C34.6039 18.382 35.6899 18.7511 36.8041 18.732H40.6921H40.8481L40.6921 18.912C34.9081 24.952 29.1281 30.98 23.3521 36.996C23.2293 37.1446 23.0725 37.2615 22.8949 37.3367C22.7174 37.4119 22.5243 37.4432 22.3321 37.428C20.8441 37.428 19.3441 37.428 17.8561 37.428C17.3756 37.4578 16.8942 37.3852 16.4439 37.2148C15.9936 37.0445 15.5847 36.7803 15.2442 36.4399C14.9038 36.0994 14.6396 35.6905 14.4693 35.2402C14.2989 34.7899 14.2262 34.3085 14.2561 33.828C14.2561 31.692 14.2561 29.556 14.2561 27.432C14.2371 26.6708 14.4791 25.926 14.9419 25.3214C15.4047 24.7167 16.0604 24.2885 16.8001 24.108C17.194 24.0217 17.5971 23.9855 18.0001 24C19.6721 24 21.3401 24 23.0041 24C23.2013 24.0036 23.3971 23.966 23.579 23.8896C23.7608 23.8131 23.9247 23.6995 24.0601 23.556C26.6641 20.928 29.2921 18.312 31.9081 15.696L32.1361 15.432ZM26.1361 24.288C26.1361 24.288 25.9921 24.288 25.9441 24.348C25.5135 24.7377 25.1124 25.1589 24.7441 25.608C24.6481 25.752 24.8041 26.16 24.9601 26.364C25.0048 26.4255 25.0617 26.4771 25.1273 26.5155C25.1928 26.554 25.2656 26.5785 25.3411 26.5875C25.4166 26.5965 25.4931 26.5899 25.5659 26.5679C25.6387 26.546 25.7062 26.5092 25.7641 26.46C26.1705 26.1398 26.53 25.7641 26.8321 25.344C27.2041 24.9 26.7721 24.276 26.1961 24.288H26.1361ZM30.0121 21.888C29.8441 21.696 29.7241 21.408 29.5201 21.312C29.4027 21.2611 29.276 21.2349 29.1481 21.2349C29.0201 21.2349 28.8935 21.2611 28.7761 21.312C28.4494 21.5626 28.1552 21.8528 27.9001 22.176C27.8274 22.2434 27.7694 22.3251 27.7297 22.4159C27.6901 22.5068 27.6696 22.6049 27.6696 22.704C27.6696 22.8031 27.6901 22.9012 27.7297 22.9921C27.7694 23.0829 27.8274 23.1646 27.9001 23.232C28.0372 23.3683 28.2227 23.4448 28.4161 23.4448C28.6094 23.4448 28.7949 23.3683 28.9321 23.232C29.1912 22.9908 29.4356 22.7343 29.6641 22.464C29.819 22.269 29.9556 22.0601 30.0721 21.84L30.0121 21.888ZM23.2801 27.456C23.0761 27.456 22.9561 27.456 22.8961 27.552C22.493 27.9257 22.1162 28.3266 21.7681 28.752C21.6888 28.8909 21.667 29.0553 21.7073 29.21C21.7477 29.3648 21.847 29.4976 21.9841 29.58C22.1016 29.6888 22.2559 29.7492 22.4161 29.7492C22.5763 29.7492 22.7305 29.6888 22.8481 29.58C23.2059 29.2904 23.5245 28.9556 23.7961 28.584C23.8494 28.4651 23.8769 28.3363 23.8769 28.206C23.8769 28.0757 23.8494 27.9469 23.7961 27.828C23.7601 27.6 23.4841 27.504 23.3401 27.408L23.2801 27.456ZM20.2441 30.552C20.049 30.6199 19.8634 30.7126 19.6921 30.828C19.402 31.0941 19.1294 31.3787 18.8761 31.68C18.7496 31.8174 18.6794 31.9973 18.6794 32.184C18.6794 32.3707 18.7496 32.5506 18.8761 32.688C19.0086 32.8192 19.1876 32.8927 19.3741 32.8927C19.5606 32.8927 19.7395 32.8192 19.8721 32.688C20.1996 32.4195 20.4901 32.1088 20.7361 31.764C20.7899 31.6474 20.8178 31.5204 20.8178 31.392C20.8178 31.2635 20.7899 31.1366 20.7361 31.02C20.7841 30.78 20.4961 30.66 20.3041 30.504L20.2441 30.552ZM31.4401 18.84C31.2477 18.8428 31.0637 18.9189 30.9255 19.0527C30.7873 19.1864 30.7052 19.3679 30.6961 19.56C30.6961 19.7573 30.7745 19.9466 30.914 20.0861C31.0535 20.2256 31.2428 20.304 31.4401 20.304C31.6374 20.304 31.8266 20.2256 31.9662 20.0861C32.1057 19.9466 32.1841 19.7573 32.1841 19.56C32.188 19.3693 32.1196 19.1842 31.9928 19.0418C31.8659 18.8993 31.6899 18.8101 31.5001 18.792L31.4401 18.84ZM17.2321 35.208C17.3318 35.2096 17.4309 35.1912 17.5233 35.1537C17.6158 35.1163 17.6997 35.0607 17.7703 34.9902C17.8408 34.9196 17.8964 34.8357 17.9338 34.7432C17.9713 34.6508 17.9897 34.5517 17.9881 34.452C17.9821 34.2598 17.903 34.077 17.767 33.941C17.631 33.8051 17.4483 33.726 17.2561 33.72C17.0575 33.726 16.8687 33.8076 16.7282 33.9481C16.5877 34.0886 16.5061 34.2774 16.5001 34.476C16.5061 34.6682 16.5852 34.8509 16.7211 34.9869C16.8571 35.1229 17.0399 35.202 17.2321 35.208Z" fill="white"/>
<path d="M1.19971 37.488L8.2437 30.4561C8.25088 30.5759 8.25088 30.6962 8.2437 30.8161C8.2437 32.0161 8.2437 33.2161 8.2437 34.4161C8.19662 35.2225 7.85105 35.9826 7.27431 36.5482C6.69756 37.1139 5.93093 37.4446 5.1237 37.476C3.7917 37.524 2.49571 37.488 1.19971 37.488Z" fill="white"/>
</svg>
