<svg width="45" height="45" viewBox="0 0 45 45" fill="none" xmlns="http://www.w3.org/2000/svg">
<path d="M5.14875 0.00308364L4.89164 0.516974L2.7062 4.88504C2.28197 5.73296 2.29482 5.83574 2.97617 6.51664C4.49312 8.04975 6.01436 9.57001 7.53989 11.0774C7.60226 11.113 7.65668 11.161 7.69983 11.2184C7.74297 11.2758 7.77392 11.3414 7.79077 11.4112C7.80763 11.481 7.81003 11.5534 7.79784 11.6242C7.78564 11.6949 7.75911 11.7624 7.71986 11.8226C6.33146 14.5719 4.95164 17.3298 3.58038 20.0962L3.38754 20.4816C3.29549 20.6724 3.28305 20.892 3.35296 21.0919C3.42288 21.2919 3.56942 21.4559 3.76035 21.5479C3.95129 21.6399 4.17097 21.6524 4.37107 21.5825C4.57118 21.5126 4.73531 21.3662 4.82737 21.1754C5.54728 19.775 6.22862 18.3747 6.93568 16.9743L9.12112 12.6062L11.4094 14.8802L13.0292 16.5118C13.4534 16.9358 13.9291 16.9872 14.3148 16.6531C14.7004 16.3191 14.6619 15.8309 14.1991 15.3684L4.5574 5.83574C4.4923 5.79232 4.43692 5.73587 4.39477 5.66995C4.35262 5.60404 4.32462 5.53011 4.31254 5.45283C4.30046 5.37554 4.30455 5.2966 4.32457 5.22098C4.34459 5.14536 4.3801 5.07471 4.42884 5.01351C5.21303 3.49754 5.97151 1.96871 6.71713 0.427043C6.76522 0.291953 6.85716 0.176827 6.97831 0.0999979C7.09945 0.0231684 7.24283 -0.0109471 7.38562 0.00308364H39.1903C39.8587 0.00308364 40.1544 0.272876 40.1673 0.966628C40.1673 1.96871 40.1673 2.9708 40.1673 3.97289V6.42671H26.7204C25.8048 6.38697 24.9031 6.66073 24.1644 7.20271C23.4257 7.7447 22.8943 8.52243 22.658 9.40728C22.5495 9.82673 22.4976 10.2588 22.5037 10.692C22.5037 16.8201 22.5037 22.9483 22.5037 29.0764V29.6674H0.00653388V29.1535C0.00653388 19.8778 0.00653388 10.5892 0.00653388 1.28781C-0.0168617 1.02113 0.0227699 0.75269 0.122234 0.504127C0.237934 0.298571 0.495045 0.00308364 0.687878 0.00308364C2.14056 0.00308364 3.59323 0.00308364 5.14875 0.00308364Z" fill="white"/>
<path d="M45.0004 12.8503C45.0004 14.2122 45.0004 15.5611 45.0004 16.8972C45.0004 17.0257 44.7947 17.1927 44.6404 17.257L37.7627 20.2761L32.7747 22.4472C32.5913 22.5009 32.4333 22.6186 32.3294 22.779C32.2256 22.9394 32.1829 23.1317 32.2091 23.3209C32.2134 23.4873 32.2763 23.6469 32.3869 23.7715C32.4974 23.896 32.6484 23.9776 32.8133 24.0018C33.0476 24.0167 33.2819 23.9725 33.4946 23.8733C35.0373 23.2181 36.5671 22.5886 38.1483 21.8563C38.5212 22.7299 38.9068 23.5907 39.2539 24.4257C39.2539 24.5285 39.1382 24.7341 39.0354 24.8368C37.1713 26.7125 35.3073 28.5625 33.4432 30.4254C33.3337 30.5349 33.2306 30.6507 33.1347 30.7723C33.0136 30.9086 32.9467 31.0846 32.9467 31.2669C32.9467 31.4492 33.0136 31.6252 33.1347 31.7615C33.2611 31.9043 33.4353 31.9961 33.6246 32.0197C33.814 32.0434 34.0054 31.9973 34.1631 31.89C34.2875 31.7974 34.4036 31.6942 34.5102 31.5816C36.1943 29.9115 37.8655 28.2285 39.5367 26.5584C39.6706 26.4032 39.7951 26.2402 39.9096 26.0702C40.2824 26.9181 40.578 27.6504 40.9123 28.3698C40.9969 28.5582 41.1515 28.7064 41.3434 28.7831C41.5352 28.8598 41.7494 28.859 41.9407 28.7809C42.1133 28.7102 42.2562 28.5821 42.3452 28.4182C42.4343 28.2544 42.4639 28.0648 42.4292 27.8816C42.4292 27.7532 42.3264 27.6247 42.275 27.4962C41.4651 25.6205 40.668 23.7577 39.8581 21.8434C39.7681 21.6636 39.691 21.4709 39.5882 21.2268L45.0004 18.9142V38.5449H24.1487V12.8503H45.0004Z" fill="white"/>
<path d="M0.00631714 31.3375H22.465V36.9389H0.944772C0.366273 36.9389 0.0320282 36.6948 0.0320282 36.1167C0.00631714 34.5365 0.00631714 32.9563 0.00631714 31.3375Z" fill="white"/>
<path d="M45.0006 40.1895C45.0006 41.0631 45.0006 41.8853 45.0006 42.7589C44.9514 43.3734 44.6677 43.9454 44.2083 44.3567C43.7489 44.768 43.1489 44.9871 42.5323 44.9686H26.7843C26.4225 45.0047 26.0573 44.96 25.7149 44.8378C25.3725 44.7156 25.0616 44.5189 24.8045 44.262C24.5475 44.0051 24.3507 43.6944 24.2284 43.3522C24.1061 43.0101 24.0614 42.6451 24.0975 42.2836V40.1895H45.0006ZM34.549 41.7568H32.2479C31.6822 41.7568 31.348 42.0652 31.348 42.5533C31.3473 42.6676 31.3708 42.7808 31.417 42.8854C31.4632 42.9899 31.5311 43.0835 31.6161 43.16C31.7011 43.2364 31.8014 43.294 31.9102 43.329C32.0191 43.3639 32.1342 43.3754 32.2479 43.3627H36.8502C36.9638 43.3754 37.0789 43.3639 37.1878 43.329C37.2967 43.294 37.397 43.2364 37.482 43.16C37.567 43.0835 37.6348 42.9899 37.681 42.8854C37.7272 42.7808 37.7508 42.6676 37.7501 42.5533C37.7501 42.078 37.4158 41.7697 36.8502 41.7568H34.549Z" fill="white"/>
<path d="M24.123 11.2189C24.097 10.8511 24.097 10.4819 24.123 10.114C24.1998 9.52269 24.4962 8.98179 24.9534 8.59864C25.4106 8.2155 25.9952 8.01811 26.5913 8.04563C31.8878 8.04563 37.1843 8.04563 42.4808 8.04563C44.1905 8.04563 45.1161 9.33035 44.949 11.2189H24.123ZM32.1449 9.63868C32.1467 9.53418 32.1272 9.43041 32.0876 9.33366C32.048 9.23692 31.9892 9.14923 31.9146 9.07593C31.8401 9.00263 31.7514 8.94524 31.654 8.90726C31.5565 8.86928 31.4524 8.8515 31.3478 8.855C31.2432 8.855 31.1395 8.87561 31.0428 8.91563C30.9461 8.95566 30.8583 9.01434 30.7842 9.0883C30.7102 9.16227 30.6515 9.25007 30.6115 9.34671C30.5714 9.44335 30.5508 9.54693 30.5508 9.65153C30.5508 9.75613 30.5714 9.85971 30.6115 9.95635C30.6515 10.053 30.7102 10.1408 30.7842 10.2148C30.8583 10.2887 30.9461 10.3474 31.0428 10.3874C31.1395 10.4275 31.2432 10.4481 31.3478 10.4481C31.4536 10.4481 31.5583 10.4271 31.6559 10.3862C31.7534 10.3454 31.8418 10.2856 31.916 10.2102C31.9902 10.1349 32.0487 10.0456 32.0879 9.94745C32.1272 9.84932 32.1466 9.74436 32.1449 9.63868ZM37.8013 8.855C37.6951 8.8515 37.5893 8.86962 37.4903 8.90825C37.3913 8.94687 37.3012 9.0052 37.2255 9.0797C37.1497 9.15419 37.0899 9.2433 37.0497 9.3416C37.0094 9.4399 36.9896 9.54534 36.9914 9.65153C36.9912 9.85627 37.0699 10.0532 37.2111 10.2016C37.3523 10.3499 37.5453 10.4382 37.7499 10.4481C37.9626 10.455 38.1695 10.3781 38.3259 10.2339C38.4822 10.0896 38.5755 9.88966 38.5855 9.67723C38.5872 9.56986 38.5675 9.46323 38.5276 9.36354C38.4877 9.26386 38.4283 9.17311 38.3529 9.09659C38.2775 9.02006 38.1877 8.95929 38.0886 8.91782C37.9894 8.87634 37.8831 8.85499 37.7756 8.855H37.8013ZM35.3716 9.63868C35.37 9.53297 35.3473 9.42864 35.3049 9.33179C35.2625 9.23493 35.2012 9.14748 35.1246 9.07453C35.048 9.00159 34.9577 8.94461 34.8588 8.90692C34.76 8.86923 34.6546 8.85158 34.5489 8.855C34.4465 8.85499 34.3451 8.87534 34.2507 8.91488C34.1563 8.95442 34.0707 9.01235 33.9989 9.0853C33.9271 9.15824 33.8705 9.24474 33.8325 9.33975C33.7945 9.43476 33.7758 9.53638 33.7775 9.63868C33.7758 9.74436 33.7952 9.84932 33.8345 9.94745C33.8738 10.0456 33.9322 10.1349 34.0064 10.2102C34.0806 10.2856 34.169 10.3454 34.2666 10.3862C34.3641 10.4271 34.4688 10.4481 34.5746 10.4481C34.7826 10.4382 34.9789 10.3485 35.1225 10.1978C35.2661 10.0471 35.3462 9.84683 35.3459 9.63868H35.3716Z" fill="white"/>
<path d="M13.9415 41.731C14.2244 40.7289 14.4943 39.7654 14.79 38.8147C14.8152 38.7491 14.8568 38.691 14.9108 38.646C14.9648 38.601 15.0294 38.5706 15.0985 38.5577H22.4648V41.7439L13.9415 41.731Z" fill="white"/>
<path d="M22.5165 43.3628L23.2364 44.9697H22.8379H8.31115C8.14149 45.0044 7.96659 45.0044 7.79693 44.9697C7.61931 44.9267 7.4647 44.8178 7.36443 44.665C7.26417 44.5122 7.22576 44.327 7.257 44.147C7.26318 43.9636 7.33793 43.7892 7.46647 43.6583C7.59501 43.5274 7.76798 43.4495 7.9512 43.4399H22.5165V43.3628Z" fill="white"/>
</svg>
