<svg width="28" height="25" viewBox="0 0 28 25" fill="none" xmlns="http://www.w3.org/2000/svg">
<path d="M10.8107 24.9745C8.47542 24.9745 6.14017 24.9745 3.80492 24.9745C3.36653 24.9745 2.91129 25.0082 2.48976 24.9154C0.879532 24.5782 -0.157421 23.0945 0.0196197 21.4589C0.0364807 21.3409 0.0364807 21.2313 0.0364807 21.1133C0.0364807 17.3954 0.0364807 13.6776 0.0364807 9.95129C0.0364807 9.44545 0.00275866 8.93119 0.112355 8.45065C0.441145 7.01747 1.71415 6.06482 3.18106 6.06482C8.00332 6.07325 12.8171 6.07325 17.631 6.08168C18.1031 6.08168 18.5836 6.04796 19.0473 6.13226C20.5563 6.39361 21.627 7.75935 21.6017 9.29371C21.5849 9.93442 21.5764 10.5751 21.5764 11.2243C21.5764 14.5291 21.5764 17.8422 21.5764 21.147C21.5764 21.6191 21.6017 22.0997 21.509 22.5549C21.2055 24.0049 19.8735 25.0166 18.3897 24.9998C16.6952 24.9829 15.0006 24.9745 13.3145 24.9745C12.4715 24.9745 11.6453 24.9745 10.8107 24.9745ZM11.8055 16.5524C11.9572 16.5524 12.0668 16.5524 12.1848 16.5524C12.8171 16.5524 13.4494 16.5608 14.0817 16.5524C14.7224 16.5439 15.1861 16.114 15.1861 15.5407C15.1861 14.959 14.7309 14.5375 14.0901 14.5291C13.4494 14.5206 12.8087 14.5291 12.168 14.5291C12.0584 14.5291 11.9488 14.5206 11.8139 14.5122C11.8139 13.7282 11.8223 12.9778 11.8139 12.236C11.8055 11.6121 11.3924 11.1653 10.8191 11.1568C10.2458 11.1484 9.80744 11.6121 9.79901 12.2444C9.79058 12.8851 9.79901 13.5258 9.79901 14.175C9.79901 14.2846 9.79058 14.3942 9.78215 14.5375C9.01498 14.5375 8.28152 14.5206 7.54807 14.5459C7.32044 14.5543 7.06753 14.6134 6.8652 14.7314C6.49425 14.9506 6.35937 15.4058 6.47739 15.8105C6.60385 16.2489 6.96636 16.5439 7.46376 16.5524C8.12977 16.5692 8.78735 16.5608 9.45336 16.5608C9.56296 16.5608 9.67256 16.5608 9.80745 16.5608C9.80745 16.9486 9.80745 17.2858 9.80745 17.6231C9.80745 18.0952 9.78215 18.5757 9.83274 19.0478C9.88332 19.5874 10.3554 19.9583 10.8781 19.933C11.3924 19.9077 11.797 19.4946 11.8223 18.9635C11.8308 18.7612 11.8308 18.5673 11.8308 18.3649C11.8055 17.7579 11.8055 17.1678 11.8055 16.5524Z" fill="#2962FF"/>
<path d="M12.0839 4.0584C9.90037 4.0584 7.70843 4.0584 5.52493 4.0584C4.97695 4.0584 4.86735 3.92351 4.95166 3.39239C5.33946 0.998122 7.18574 -0.308608 9.62216 0.0623347C11.9827 0.416416 14.3432 0.736776 16.7038 1.06557C19.0559 1.39436 21.408 1.71472 23.7517 2.0688C24.325 2.1531 24.9235 2.2627 25.4462 2.49875C27.2419 3.29122 27.8236 4.93517 27.596 6.65499C27.2672 9.142 26.9047 11.6206 26.5506 14.0991C26.323 15.7347 26.1122 17.3786 25.8593 19.0057C25.6991 20.0258 25.168 20.8435 24.3756 21.5011C24.2154 21.636 24.0215 21.7709 23.8444 21.6192C23.718 21.5096 23.6084 21.2904 23.6084 21.1218C23.6 17.1847 23.5915 13.2392 23.6168 9.30218C23.6337 6.38522 21.3406 4.04154 18.4236 4.04997C16.3076 4.04997 14.1999 4.04997 12.0839 4.04997V4.0584Z" fill="#2962FF"/>
</svg>
