<svg width="25" height="25" viewBox="0 0 25 25" fill="none" xmlns="http://www.w3.org/2000/svg">
<path d="M10.6272 5.24344e-05C12.0562 5.24344e-05 13.4929 -0.00775597 14.9219 5.24344e-05C18.0062 0.0234777 20.5049 2.09271 21.0905 5.11456C21.1686 5.50498 21.192 5.91102 21.192 6.30925C21.1998 9.18274 21.2076 12.0484 21.192 14.9219C21.1764 17.9047 19.2868 20.3488 16.4289 21.0515C15.937 21.1765 15.406 21.2233 14.8984 21.2233C12.0328 21.2389 9.16707 21.2389 6.30138 21.2311C3.20925 21.2233 0.710565 19.1619 0.109318 16.14C0.0312336 15.7418 0.00780841 15.328 0 14.9219C0 12.0562 0 9.18274 0.00780841 6.31705C0.0156168 3.21712 2.05361 0.726234 5.08327 0.117179C5.50493 0.0312861 5.93439 0.00786084 6.36385 0.00786084C7.78498 -0.00775597 9.20611 5.24344e-05 10.6272 5.24344e-05ZM8.84692 11.4628C8.76884 11.3691 8.71418 11.291 8.65952 11.2129C8.21444 10.5961 7.76936 9.9792 7.32429 9.36233C6.8714 8.73766 6.11398 8.58149 5.53616 8.99534C4.94272 9.41699 4.84121 10.1822 5.30972 10.8303C6.05932 11.8766 6.81674 12.9152 7.56635 13.9615C8.12074 14.7345 8.9172 14.8048 9.61215 14.1645C10.7912 13.0713 11.9703 11.9781 13.1494 10.885C14.0317 10.0651 14.9219 9.24521 15.8042 8.41751C16.1946 8.05052 16.3196 7.58982 16.14 7.08228C15.9682 6.59816 15.609 6.31705 15.1015 6.25459C14.6954 6.19993 14.3597 6.34829 14.0629 6.62158C12.4935 8.08175 10.9162 9.53412 9.34666 10.9943C9.19049 11.1505 9.02652 11.2988 8.84692 11.4628Z" fill="#2962FF"/>
<path d="M11.533 24.9792C10.1665 24.9792 8.80782 24.987 7.44135 24.9792C6.90257 24.9714 6.45749 24.6278 6.29352 24.1359C6.12954 23.6518 6.28571 23.113 6.67613 22.785C6.93381 22.5664 7.23833 22.4961 7.5741 22.4961C9.08112 22.5039 10.596 22.5039 12.103 22.4961C13.2508 22.4883 14.4065 22.5195 15.5543 22.4493C18.7245 22.2619 21.5277 19.8647 22.2227 16.7569C22.3632 16.1166 22.4335 15.4451 22.4413 14.7892C22.4647 12.392 22.4491 9.98705 22.4491 7.58206C22.4491 6.84807 22.863 6.34833 23.5423 6.25463C24.1982 6.16093 24.8463 6.65286 24.9244 7.31657C24.9322 7.39466 24.94 7.47274 24.94 7.55082C24.94 10.1198 24.9712 12.6888 24.9244 15.2499C24.8541 19.7866 21.6058 23.7611 17.1862 24.7215C16.421 24.8855 15.6246 24.9401 14.8437 24.9714C13.7427 25.0182 12.6339 24.987 11.533 24.9792Z" fill="#2962FF"/>
</svg>
