<svg width="45" height="45" viewBox="0 0 45 45" fill="none" xmlns="http://www.w3.org/2000/svg">
<path d="M0 0.993734C0.149692 0.660553 0.403669 0.385084 0.723621 0.208878C1.04357 0.0326728 1.41215 -0.034712 1.77375 0.0168881C12.8018 0.0168881 23.8256 0.0168881 34.8451 0.0168881C36.6832 0.0168881 37.2101 0.402485 37.0687 2.27906C37.042 2.82586 36.9248 3.36445 36.7217 3.87286C36.5371 4.32378 36.2218 4.70916 35.8164 4.97944C35.4109 5.24972 34.9339 5.39254 34.4467 5.38954H3.40611C1.28532 5.38954 0.758341 4.99109 0 3.10167V0.993734Z" fill="white"/>
<path d="M0 41.9314C0.154777 41.3059 0.500734 40.7443 0.989699 40.3247C1.48536 39.9294 2.10386 39.7202 2.73774 39.7335H34.3439C34.7053 39.7113 35.0673 39.7657 35.4063 39.8931C35.7452 40.0205 36.0534 40.2181 36.3106 40.473C36.5679 40.7278 36.7684 41.0341 36.8991 41.3718C37.0297 41.7095 37.0875 42.071 37.0687 42.4327C37.0687 42.6897 37.0687 42.9596 37.0687 43.2167C37.1382 43.58 37.0803 43.9561 36.9047 44.2815C36.729 44.607 36.4465 44.862 36.1047 45.0033H0.976846L0 44.0393V41.9314Z" fill="white"/>
<path d="M5.3085 34.3994H31.7862V37.06H5.3085V34.3994Z" fill="white"/>
<path d="M31.7862 10.6465H5.3085V8.07581H31.7862V10.6465Z" fill="white"/>
<path d="M5.29532 15.9037V13.333H31.773V15.9037H5.29532Z" fill="white"/>
<path d="M31.7862 18.5897V21.1604H5.3085V18.5897H31.7862Z" fill="white"/>
<path d="M31.8119 26.4688H5.3085V23.8982H31.799V26.4688H31.8119Z" fill="white"/>
<path d="M31.7862 29.0911V31.6617H5.3085V29.0911H31.7862Z" fill="white"/>
<path d="M31.7986 26.4691C32.2099 26.4691 32.6212 26.4691 33.0839 26.4691C33.619 26.4797 34.1507 26.3817 34.6469 26.181C35.143 25.9803 35.5933 25.6811 35.9706 25.3014C36.3478 24.9218 36.6442 24.4696 36.8417 23.9722C37.0392 23.4748 37.1339 22.9425 37.1199 22.4074C37.1199 20.698 37.1199 18.9756 37.1199 17.2661C37.1196 15.7527 37.6429 14.2858 38.6012 13.1144C39.5594 11.943 40.8934 11.1392 42.3768 10.8395C42.7994 10.7507 43.2303 10.7076 43.6622 10.711C43.8309 10.7042 43.9994 10.7308 44.1579 10.7892C44.3165 10.8475 44.462 10.9365 44.5861 11.0511C44.7102 11.1657 44.8105 11.3036 44.8814 11.4569C44.9522 11.6103 44.9921 11.7761 44.9989 11.9449C45.0056 12.1137 44.9791 12.2822 44.9207 12.4407C44.8624 12.5992 44.7734 12.7447 44.6588 12.8688C44.5442 12.9929 44.4063 13.0933 44.2529 13.1641C44.0996 13.235 43.9338 13.2749 43.765 13.2816C43.1494 13.2906 42.5436 13.4373 41.992 13.7108C41.4404 13.9844 40.9571 14.3779 40.5774 14.8626C40.018 15.5999 39.7318 16.5084 39.7676 17.4332C39.7676 19.0784 39.7676 20.7108 39.7676 22.356C39.7962 23.255 39.6402 24.1502 39.3092 24.9865C38.9783 25.8228 38.4794 26.5824 37.8435 27.2184C37.2075 27.8543 36.4479 28.3532 35.6116 28.6841C34.7753 29.0151 33.8801 29.1711 32.9811 29.1425H31.8629C31.8629 28.2685 31.8629 27.3945 31.8629 26.5719L31.7986 26.4691Z" fill="white"/>
</svg>
