<svg width="25" height="30" viewBox="0 0 25 30" fill="none" xmlns="http://www.w3.org/2000/svg">
<path d="M6.27637 18.7413C6.97178 18.7413 7.64111 18.7413 8.31913 18.7413C8.77984 17.4114 9.64911 16.3856 10.7183 15.5251C11.6919 14.7427 12.7871 14.4211 14.065 14.621C14.065 14.7166 14.065 14.8296 14.065 14.9513C14.065 16.177 14.065 17.4027 14.065 18.6283C14.065 19.3759 14.4822 19.7931 15.2385 19.7931C16.8031 19.7931 18.3591 19.7931 19.9238 19.7931C21.0625 19.7931 21.6971 20.5929 21.4537 21.7055C20.993 23.7831 20.5323 25.8693 20.0629 27.9468C19.889 28.7292 19.3588 29.1638 18.5591 29.1638C16.5424 29.1638 14.5257 29.1638 12.509 29.1638C11.4572 29.1638 10.5358 28.8509 9.70996 28.1902C9.24055 27.8164 8.80592 27.3036 8.26698 27.121C7.73673 26.9385 7.08478 27.0776 6.49368 27.0776C6.43283 27.0776 6.36329 27.0776 6.27637 27.0776C6.27637 24.2959 6.27637 21.5404 6.27637 18.7413Z" fill="#2962FF"/>
<path d="M17.1946 10.4138C14.9953 10.4138 12.7961 10.4138 10.5882 10.4138C9.77105 10.4138 9.37988 10.0139 9.37988 9.1968C9.37988 6.53686 9.37988 3.88561 9.37988 1.22566C9.37988 0.399861 9.77105 0.00869263 10.5882 0.00869263C14.9953 0 19.3938 0 23.801 0C24.592 0 25.0005 0.408554 25.0005 1.19958C25.0005 3.86822 25.0005 6.53686 25.0005 9.20549C25.0005 10.0052 24.6007 10.4051 23.801 10.4138C21.6017 10.4138 19.3938 10.4138 17.1946 10.4138ZM16.56 5.34597C16.021 4.96349 15.5169 4.58971 15.004 4.23331C14.6998 4.02469 14.3868 4.06815 14.1956 4.32893C14.0131 4.58971 14.0739 4.8331 14.2564 5.0765C14.8562 5.9023 15.4473 6.7281 16.0471 7.55389C16.4991 8.17107 17.0468 8.15369 17.4553 7.49305C18.3507 6.06745 19.2373 4.64186 20.124 3.21627C20.1761 3.12935 20.2631 3.05111 20.2631 2.96419C20.2631 2.75556 20.2804 2.49478 20.1674 2.3644C20.0457 2.22531 19.7763 2.14708 19.5763 2.15577C19.4286 2.16446 19.2547 2.32093 19.1417 2.45132C18.2811 3.40751 17.4379 4.3637 16.56 5.34597Z" fill="#2962FF"/>
<path d="M4.69402 22.9051C4.69402 24.409 4.69402 25.9215 4.69402 27.4253C4.69402 27.9382 4.52017 28.112 4.0073 28.112C2.90334 28.112 1.79937 28.112 0.686718 28.112C0.173853 28.112 0.00869263 27.9382 0 27.4253C0 24.409 0 21.3926 0 18.385C0 17.8721 0.173853 17.7069 0.686718 17.6982C1.79068 17.6982 2.89465 17.6982 4.0073 17.6982C4.52017 17.6982 4.69402 17.8721 4.69402 18.385C4.69402 19.8888 4.69402 21.3926 4.69402 22.9051Z" fill="#2962FF"/>
<path d="M18.7329 11.9958C18.7329 14.0734 18.7329 16.1248 18.7329 18.2024C17.7071 18.2024 16.6901 18.2024 15.647 18.2024C15.647 16.1422 15.647 14.0821 15.647 11.9958C16.664 11.9958 17.6897 11.9958 18.7329 11.9958Z" fill="#2962FF"/>
</svg>
