<svg width="47" height="47" viewBox="0 0 47 47" fill="none" xmlns="http://www.w3.org/2000/svg">
<g clip-path="url(#clip0_491_626)">
<path d="M35.5664 3.99691C37.4499 4.17196 39.3187 4.34701 41.2022 4.53664C41.32 4.55123 41.4671 4.59499 41.5554 4.66793C42.4677 5.3827 43.2476 6.19958 43.6155 7.30821C43.9834 8.40225 43.8068 9.42336 43.1741 10.3861C42.5119 11.4072 41.5848 12.1512 40.5695 12.7784C38.3328 14.1496 35.8754 14.9227 33.3297 15.4041C26.8109 16.6294 20.2774 16.6878 13.7439 15.4333C11.2423 14.9519 8.81433 14.2371 6.65121 12.8951C5.73887 12.3262 4.85597 11.6114 4.14964 10.8091C2.76642 9.21914 2.86943 7.39573 4.31151 5.8349C5.62115 4.41994 7.29867 3.57389 9.06448 2.8737C12.2429 1.6192 15.5686 0.991948 18.9383 0.583506C25.6631 -0.21879 32.3879 -0.0875054 39.1127 0.568919C41.3347 0.758553 43.5567 1.0503 45.7639 1.32745C46.691 1.44415 47.0294 1.77966 46.9853 2.47984C46.9411 3.19462 46.485 3.5593 45.7051 3.47177C44.0423 3.28214 42.3942 3.06333 40.7314 2.88829C34.4039 2.23186 28.0764 1.82342 21.7195 2.3048C17.5551 2.62572 13.4496 3.28214 9.57951 4.9305C8.46116 5.41187 7.37225 6.00995 6.38634 6.72472C5.06198 7.70207 5.06198 8.95657 6.26861 10.0944C7.35753 11.1155 8.74075 11.6552 10.124 12.122C13.273 13.1723 16.525 13.6974 19.8212 13.96C23.2498 14.2371 26.6784 14.2226 30.0923 13.7558C32.9912 13.3619 35.8312 12.7055 38.4652 11.3926C39.304 10.9696 40.1133 10.4299 40.8049 9.80262C41.8056 8.88363 41.7614 7.92087 40.8196 6.94353C39.8484 5.93701 38.5977 5.35353 37.3322 4.8138C36.7289 4.55123 36.1108 4.34701 35.5075 4.11361C35.5369 4.06985 35.5516 4.04068 35.5664 3.99691Z" fill="white"/>
<path d="M4.38509 13.2306C4.97369 13.6244 5.56229 14.0183 6.1509 14.3976C6.13618 14.4413 6.1509 14.4851 6.12147 14.5143C5.10613 15.6958 5.1797 16.6294 6.40106 17.7089C7.62241 18.7737 9.09392 19.3864 10.6243 19.8824C14.4208 21.1223 18.3497 21.5745 22.3228 21.6474C26.8403 21.7349 31.3137 21.3994 35.6547 20.072C36.9202 19.6781 38.1268 19.0801 39.3481 18.5403C39.7307 18.3653 40.0692 18.1027 40.3782 17.8256C41.3788 16.9795 42.1293 16.0167 40.8638 14.4413C41.4524 14.0475 42.041 13.6682 42.6296 13.2744C43.8657 14.383 44.1158 16.3523 43.2035 17.8839C42.4972 19.0655 41.4377 19.8678 40.2605 20.5242C37.7589 21.91 35.0366 22.6393 32.2555 23.1061C25.8838 24.2002 19.5122 24.1418 13.17 22.7998C10.845 22.3038 8.5936 21.6182 6.51878 20.4221C5.53286 19.8532 4.62053 19.1676 3.95835 18.234C2.79586 16.6148 2.97244 14.5434 4.38509 13.2306Z" fill="white"/>
<path d="M4.29678 20.8889C4.91482 21.2828 5.48871 21.662 6.07731 22.0413C6.07731 22.0705 6.09203 22.1142 6.07731 22.1434C4.97368 23.3687 5.42985 24.3898 6.41576 25.2651C7.81369 26.4904 9.50593 27.1322 11.257 27.6428C15.6568 28.9556 20.1891 29.3203 24.7508 29.2328C28.4884 29.1453 32.1966 28.766 35.7576 27.6282C37.0526 27.2198 38.3034 26.6217 39.5247 26.009C40.0839 25.7319 40.5695 25.2651 40.9962 24.7983C41.732 23.9814 41.732 23.2375 41.0845 22.3185C41.0257 22.2309 40.9668 22.1434 40.8932 22.0559C41.4965 21.662 42.0704 21.2828 42.659 20.9035C43.7332 21.7641 44.1011 23.6605 43.4242 25.09C42.7767 26.4758 41.6143 27.3511 40.3193 28.0804C37.8619 29.4662 35.169 30.181 32.4173 30.6623C25.9427 31.8001 19.4828 31.7418 13.0523 30.356C10.8009 29.8746 8.62302 29.189 6.60705 28.0512C5.577 27.4677 4.63523 26.7676 3.95834 25.7902C2.82528 24.2148 2.95771 22.333 4.29678 20.8889Z" fill="white"/>
<path d="M40.9079 29.5975C41.526 29.2036 42.0999 28.8243 42.6738 28.4451C43.9098 29.6704 44.1158 31.5667 43.1741 33.113C42.4972 34.2216 41.4966 34.9801 40.3782 35.6074C38.1121 36.9057 35.6252 37.6204 33.0795 38.1018C26.0457 39.4292 19.0266 39.3709 12.0517 37.6934C9.9474 37.1828 7.88729 36.5118 6.06262 35.2865C5.31215 34.7905 4.59111 34.1633 4.03193 33.4631C2.78115 31.8877 2.89887 30.0059 4.26738 28.4451C4.8707 28.8389 5.47401 29.2182 6.07733 29.612C5.09142 31.1291 5.23857 31.9606 6.69537 33.0838C8.22574 34.2508 10.0063 34.878 11.8309 35.374C16.4368 36.6285 21.1456 36.9494 25.8986 36.7306C29.489 36.5701 33.0207 36.1179 36.4346 34.9364C37.4205 34.6009 38.3475 34.1195 39.2893 33.6819C39.6277 33.5214 39.9515 33.288 40.2458 33.04C41.6878 31.9606 41.8497 31.0999 40.9079 29.5975Z" fill="white"/>
<path d="M4.28209 36.0159C4.90012 36.4097 5.50344 36.8036 6.12148 37.1974C6.0479 37.2995 5.97432 37.4017 5.90075 37.5038C5.28272 38.3061 5.20914 39.0938 5.91546 39.8231C6.5335 40.465 7.26925 41.0485 8.06387 41.4861C10.4624 42.7843 13.0964 43.3824 15.7599 43.7909C21.3222 44.6369 26.8698 44.5931 32.4173 43.5866C34.7276 43.1636 36.9937 42.5509 39.0686 41.4131C39.5836 41.136 40.0839 40.8151 40.5106 40.4212C41.7026 39.3709 41.9086 38.4519 40.8932 37.1828C41.4818 36.789 42.0704 36.4097 42.659 36.0305C43.8657 37.0516 44.1306 39.05 43.2329 40.5817C42.6738 41.559 41.835 42.2592 40.908 42.8573C38.7301 44.2431 36.3021 45.0162 33.8006 45.5267C26.34 47.0584 18.8942 47 11.4925 45.1183C9.1675 44.5202 6.94552 43.6742 5.0767 42.1425C3.85535 41.1506 3.07545 39.9107 3.2226 38.2623C3.29618 37.3871 3.69349 36.6577 4.28209 36.0159Z" fill="white"/>
<path d="M37.3322 10.1819C31.5933 13.3036 15.0682 13.3036 9.59422 10.1965C14.6415 7.80423 19.9536 7.10404 25.4129 7.35203C29.5332 7.54166 33.5357 8.32937 37.3322 10.1819Z" fill="white"/>
<path d="M23.4706 20.1887C19.3798 20.072 15.3331 19.7219 11.4189 18.4528C10.33 18.1028 9.28521 17.5776 8.24043 17.0962C7.90199 16.9358 7.57826 16.6878 7.31338 16.4252C7.18095 16.2794 7.04851 15.9147 7.1368 15.8126C7.35753 15.55 7.56354 15.1124 8.04914 15.302C13.5673 17.5484 19.3503 17.9715 25.2216 17.8256C29.1947 17.7235 33.1237 17.2421 36.9349 16.0605C37.6118 15.8417 38.2887 15.6083 38.9361 15.3312C39.407 15.127 39.5541 15.4625 39.7896 15.6959C40.0692 15.973 39.8779 16.2356 39.6572 16.3815C38.9655 16.8483 38.2739 17.3442 37.5235 17.6943C34.9042 18.8905 32.0936 19.4594 29.2389 19.7657C27.3259 19.9699 25.3982 20.0429 23.4706 20.1887Z" fill="white"/>
<path d="M23.5 42.8135C19.4386 42.7697 15.4067 42.4196 11.5072 41.1797C10.0798 40.7275 8.66718 40.2024 7.47525 39.2542C6.90136 38.7874 6.90136 38.5394 7.5194 38.131C7.65183 38.0435 7.90199 38.0289 8.06386 38.0872C14.2736 40.4066 20.7336 40.8442 27.2818 40.4504C30.99 40.2316 34.6393 39.6335 38.1562 38.3644C38.3769 38.2769 38.6271 38.2331 38.8184 38.1018C39.304 37.7809 39.5542 38.0872 39.8043 38.4082C40.1133 38.8166 39.7454 39.0208 39.51 39.2105C38.4064 40.1295 37.0967 40.64 35.7429 41.0776C31.7699 42.3905 27.6644 42.7552 23.5 42.8135Z" fill="white"/>
<path d="M21.6606 27.6428C18.5999 27.5844 14.4061 27.1614 10.3888 25.6443C9.34407 25.2505 8.38759 24.6232 7.40168 24.0543C7.18096 23.923 6.84251 23.7042 7.13681 23.3541C7.38697 23.0624 7.59298 22.7269 8.12272 22.9457C11.5072 24.3023 15.0535 24.915 18.6587 25.2359C22.2492 25.5568 25.8397 25.513 29.4302 25.1192C32.6675 24.7691 35.846 24.1564 38.8773 22.9165C39.3776 22.7123 39.5836 22.9749 39.819 23.2812C40.0839 23.6313 39.7896 23.8209 39.5689 24.0105C38.4211 25.0025 37.0379 25.5276 35.6105 25.9798C31.4756 27.3218 27.1935 27.7011 21.6606 27.6428Z" fill="white"/>
<path d="M23.5 35.2281C19.4533 35.2281 15.4361 34.8634 11.5513 33.6235C10.4183 33.2588 9.35878 32.7337 8.26987 32.2377C7.96085 32.0919 7.65183 31.8876 7.43111 31.6396C7.26924 31.4646 7.06323 31.0853 7.1368 30.954C7.34281 30.6185 7.59297 30.2976 8.15215 30.531C11.3453 31.8147 14.6856 32.4274 18.0995 32.7629C21.9696 33.1421 25.825 33.113 29.695 32.6753C32.8588 32.3107 35.9637 31.7126 38.9214 30.4873C39.407 30.283 39.5836 30.5748 39.819 30.8519C40.0986 31.1874 39.819 31.4063 39.613 31.5813C38.4652 32.5586 37.082 33.0984 35.6694 33.5506C31.9023 34.7759 28.0028 35.1698 24.0592 35.2281C23.8679 35.2281 23.6766 35.2281 23.5 35.2281Z" fill="white"/>
<path d="M7.85785 9.33579C6.75421 8.62101 6.7395 8.32927 7.87256 7.58532C9.87381 6.27247 12.1252 5.57229 14.4355 5.01797C17.614 4.25944 20.8513 3.74889 24.1327 3.851C28.7827 3.99687 33.3297 4.71164 37.597 6.68091C38.3034 7.00183 38.9361 7.4978 39.5836 7.93542C39.9956 8.21257 39.9956 8.53349 39.5983 8.83982C39.407 8.98569 39.2304 9.14615 39.0538 9.29203C34.1831 6.65174 28.9151 5.71816 23.4558 5.73275C17.9965 5.73275 12.7285 6.66633 7.85785 9.33579Z" fill="white"/>
<path d="M11.9486 47C10.3594 46.8687 8.77018 46.7812 7.19567 46.6061C5.20913 46.3873 3.23731 46.1247 1.25077 45.8622C0.26486 45.7309 -0.103017 45.337 0.0147038 44.5639C0.0882793 44.0096 0.470872 43.6449 1.03005 43.7033C2.38383 43.8345 3.72291 44.0096 5.06198 44.17C5.16499 44.1846 5.26799 44.243 5.371 44.2867C7.35753 45.5121 9.53537 46.256 11.7721 46.8395C11.8456 46.8541 11.9045 46.8833 11.9781 46.8979C11.9634 46.927 11.9634 46.9562 11.9486 47Z" fill="white"/>
</g>
<defs>
<clipPath id="clip0_491_626">
<rect width="47" height="47" fill="white"/>
</clipPath>
</defs>
</svg>
