<svg width="25" height="25" viewBox="0 0 25 25" fill="none" xmlns="http://www.w3.org/2000/svg">
<path d="M0.439496 25C0.0952242 24.8315 0 24.5531 0 24.1869C0.00732493 21.5426 0.00732493 18.8983 0.00732493 16.254C0.00732493 15.6607 0.205098 15.4702 0.798418 15.4629C1.45034 15.4629 2.10226 15.4629 2.75418 15.4629C3.25227 15.4629 3.46469 15.6826 3.46469 16.1807C3.46469 18.8543 3.45737 21.5353 3.47202 24.2089C3.47202 24.5751 3.36214 24.8388 3.03252 25C2.16086 25 1.30384 25 0.439496 25Z" fill="#2962FF"/>
<path d="M22.4436 6.07239C22.4436 9.42721 19.7114 12.1594 16.3565 12.1521C13.0091 12.1448 10.2915 9.42721 10.2915 6.07971C10.2915 2.71757 13.0164 -0.0073102 16.3712 1.47335e-05C19.7187 0.00733967 22.4436 2.73222 22.4436 6.07239ZM16.6202 4.38765C16.4957 4.38765 16.4151 4.38765 16.3346 4.38765C15.6607 4.38765 14.9868 4.38765 14.3056 4.38765C13.9173 4.38765 13.6683 4.6074 13.6683 4.93702C13.6756 5.25932 13.9173 5.47174 14.2909 5.47174C14.9795 5.47174 15.6753 5.47174 16.3639 5.47174C16.4298 5.47174 16.4957 5.47907 16.5909 5.48639C16.3346 5.94786 15.9537 6.16761 15.4629 6.18226C15.0454 6.19691 14.6352 6.18226 14.2177 6.18958C13.8587 6.19691 13.595 6.49723 13.6756 6.81953C13.7122 6.97335 13.8221 7.12718 13.9393 7.23705C14.7451 8.01349 15.5655 8.78261 16.3785 9.55905C16.5543 9.72753 16.7301 9.90333 16.9132 10.0571C17.1476 10.2549 17.4626 10.2329 17.6604 10.0132C17.8508 9.8081 17.8582 9.50778 17.6677 9.28071C17.6238 9.22211 17.5652 9.17816 17.5139 9.12688C16.9279 8.57019 16.3419 8.02082 15.7632 7.46412C15.712 7.42017 15.668 7.36157 15.6094 7.28832C16.4664 7.18578 17.111 6.79023 17.5212 6.05774C17.6238 5.86729 17.6604 5.58161 17.8142 5.49372C17.9827 5.39117 18.2537 5.47174 18.4808 5.46442C18.8031 5.44977 19.0301 5.23734 19.0375 4.93702C19.0448 4.62205 18.8177 4.39498 18.4881 4.38033C18.2537 4.373 18.0193 4.38033 17.7922 4.38033C17.6897 4.11663 17.5871 3.87491 17.4846 3.60388C17.8142 3.60388 18.1292 3.60388 18.4442 3.60388C18.8031 3.59656 19.0375 3.38413 19.0448 3.06916C19.0521 2.73954 18.8177 2.51979 18.4442 2.51979C17.0524 2.51979 15.6607 2.51979 14.2689 2.51979C13.91 2.51979 13.6756 2.73954 13.6683 3.05451C13.661 3.37681 13.91 3.60388 14.2763 3.60388C14.6645 3.61121 15.06 3.59656 15.4483 3.61121C15.9683 3.64051 16.3419 3.88956 16.6202 4.38765Z" fill="#2962FF"/>
<path d="M4.55615 22.722C4.55615 22.5974 4.55615 22.5169 4.55615 22.4363C4.55615 20.5318 4.55615 18.6273 4.54883 16.7228C4.54883 16.5251 4.61475 16.4372 4.78323 16.3566C5.53769 16.005 6.29949 15.6387 7.04663 15.2725C8.40907 14.5986 9.84476 14.3715 11.3537 14.4668C12.4744 14.54 13.5951 14.562 14.7158 14.6059C15.2652 14.6279 15.6608 14.9356 15.712 15.419C15.7633 15.9098 15.441 16.3126 14.8916 16.4225C13.976 16.5983 13.0531 16.7741 12.1375 16.9499C11.1266 17.1404 10.6725 18.1512 11.1266 19.0668C11.5734 19.9751 12.2254 20.3853 13.2509 20.2754C14.1738 20.1802 15.1041 20.2095 16.027 20.1289C17.0452 20.0337 17.9535 19.6162 18.7519 18.9716C19.9532 18.012 21.1398 17.0305 22.3411 16.0782C22.5315 15.9317 22.7806 15.8145 23.015 15.7852C23.4325 15.7266 23.7841 15.9903 23.9453 16.3932C24.0918 16.7668 24.0039 17.155 23.6742 17.426C22.9198 18.0633 22.1653 18.6859 21.4035 19.3159C20.7076 19.8945 20.0264 20.4879 19.3086 21.0299C17.785 22.1799 16.049 22.6121 14.1518 22.5022C12.24 22.3923 10.3355 22.3191 8.42372 22.2312C7.37625 22.1799 6.35076 22.3923 5.3326 22.5901C5.08355 22.6267 4.8345 22.6707 4.55615 22.722Z" fill="#2962FF"/>
</svg>
