<svg width="22" height="25" viewBox="0 0 22 25" fill="none" xmlns="http://www.w3.org/2000/svg">
<path d="M6.2554 25C6.11843 24.9152 5.96841 24.8499 5.84449 24.7456C5.49227 24.4716 5.34225 24.0933 5.34225 23.6563C5.34225 21.6278 5.33573 19.6059 5.34225 17.5774C5.34878 16.749 5.90319 16.2076 6.73154 16.2076C9.37315 16.2076 12.0213 16.2076 14.6629 16.2076C15.4978 16.2076 16.0783 16.7881 16.0783 17.6165C16.0848 19.5211 16.0587 21.4256 16.0913 23.3302C16.1044 24.0868 15.9022 24.6673 15.1847 24.9934C12.217 25 9.23618 25 6.2554 25ZM9.65362 18.3144C9.62753 18.2753 9.62101 18.2753 9.62101 18.2687C9.61448 18.047 9.61448 17.8317 9.60796 17.61C9.59492 17.2969 9.41881 17.1012 9.15791 17.1143C8.90353 17.1273 8.74699 17.3165 8.74699 17.623C8.74699 18.1579 8.75352 18.6992 8.74699 19.2341C8.74047 19.4624 8.82526 19.6319 9.02746 19.7298C9.23618 19.8341 9.39924 19.7363 9.55578 19.5993C9.93408 19.2667 10.3124 18.9406 10.7037 18.6014C11.1147 18.9601 11.5125 19.3058 11.9104 19.6515C12.093 19.8146 12.23 19.8146 12.3865 19.6319C12.4648 19.5406 12.53 19.4037 12.53 19.2863C12.5431 18.7253 12.5431 18.1644 12.5366 17.6035C12.53 17.3034 12.3474 17.1143 12.0996 17.1208C11.8452 17.1273 11.6821 17.3165 11.6756 17.6165C11.6756 17.8513 11.6756 18.0796 11.6756 18.3666C11.4147 18.1318 11.1929 17.9296 10.9646 17.7339C10.7298 17.5317 10.5472 17.5317 10.3124 17.7339C10.0971 17.9165 9.88191 18.1122 9.65362 18.3144ZM13.678 24.1781C14.0106 24.1781 14.3433 24.1781 14.6759 24.1781C14.9955 24.1716 15.1521 24.0411 15.1521 23.7868C15.1521 23.4998 14.9825 23.3302 14.6694 23.3302C14.0106 23.3237 13.3584 23.3237 12.6996 23.3302C12.4192 23.3302 12.23 23.5063 12.2235 23.7476C12.217 23.9955 12.4126 24.1781 12.7061 24.1846C13.0323 24.1781 13.3519 24.1781 13.678 24.1781ZM13.6976 22.3779C14.0302 22.3779 14.3629 22.3844 14.6955 22.3779C15.0021 22.3714 15.1521 22.2344 15.1521 21.9931C15.1521 21.7061 14.9825 21.53 14.6759 21.53C14.0172 21.5235 13.3649 21.5235 12.7061 21.53C12.4126 21.53 12.217 21.7126 12.2235 21.9605C12.23 22.2018 12.4192 22.3714 12.6996 22.3779C13.0323 22.3844 13.3649 22.3779 13.6976 22.3779Z" fill="#2962FF"/>
<path d="M16.9522 21.954C16.9522 21.8431 16.9522 21.7518 16.9522 21.667C16.9522 20.3168 16.9522 18.9667 16.9522 17.6165C16.9522 16.2403 16.0326 15.3206 14.6563 15.3206C12.0343 15.3141 9.41224 15.3141 6.79672 15.3206C5.40743 15.3206 4.49428 16.2403 4.49428 17.6361C4.49428 18.9862 4.49428 20.3364 4.49428 21.6866C4.49428 21.7779 4.49428 21.8627 4.49428 21.9801C4.38992 21.9866 4.30513 21.9996 4.22034 21.9931C3.62027 21.9801 3.00716 22.0388 2.42013 21.9409C0.952573 21.6866 -0.0192773 20.4668 0.000290128 18.9797C0.0329026 16.1294 2.10053 13.6117 4.89868 13.129C5.75312 12.979 6.64671 13.0377 7.52724 13.0116C7.57942 13.0116 7.65769 13.0508 7.67726 13.0964C8.05556 13.9639 8.80565 14.3292 9.65357 14.5314C10.7494 14.7858 11.819 14.6879 12.8105 14.1074C13.1953 13.8791 13.5018 13.5726 13.6975 13.1551C13.7236 13.0964 13.8084 13.0182 13.8606 13.0182C14.9172 13.0312 15.9804 12.9203 17.0109 13.2399C19.1438 13.8987 21.1005 15.7054 21.4071 18.471C21.5245 19.5276 21.2832 20.4408 20.5005 21.1778C19.9591 21.6931 19.3003 21.9409 18.5502 21.9605C18.0284 21.967 17.5001 21.954 16.9522 21.954Z" fill="#2962FF"/>
<path d="M15.1849 6.72393C15.3153 9.61992 13.1694 11.4462 10.8996 11.4397C8.38194 11.4332 6.4578 9.33945 6.60782 6.76959C6.79045 6.83481 6.96003 6.92613 7.14266 6.96526C7.5014 7.04353 7.821 6.92613 8.14713 6.76307C9.83645 5.89558 11.5519 5.8434 13.2934 6.60001C13.3521 6.62609 13.4108 6.65218 13.4695 6.69132C14.0239 7.05006 14.5848 7.11528 15.1849 6.72393Z" fill="#2962FF"/>
<path d="M15.1912 4.39546C12.3148 2.80397 9.46448 2.8105 6.58154 4.40198C6.65329 3.51492 6.45762 2.64091 6.77722 1.79951C7.17509 0.749391 8.17955 0.0253946 9.30794 0.0123496C10.3646 -0.000695356 11.4212 -0.00721784 12.4779 0.0123496C13.9715 0.0384396 15.1717 1.26467 15.1847 2.75832C15.1977 3.29316 15.1912 3.828 15.1912 4.39546Z" fill="#2962FF"/>
<path d="M15.0606 5.36077C14.9693 5.53688 14.891 5.70646 14.7932 5.863C14.6497 6.09781 14.4083 6.15651 14.1409 6.0065C13.3778 5.58906 12.569 5.30859 11.7015 5.20423C10.3383 5.04117 9.04686 5.27598 7.82715 5.90866C7.29231 6.1826 7.18795 6.15651 6.90096 5.62167C6.8553 5.53688 6.81617 5.45209 6.77051 5.36729C9.02729 3.73015 12.3994 3.541 15.0606 5.36077Z" fill="#2962FF"/>
<path d="M12.8624 11.8963C12.9994 12.7247 12.7841 13.1617 12.0536 13.4683C11.1144 13.8596 10.1686 13.8596 9.24244 13.4356C8.70107 13.1943 8.34886 12.816 8.44017 12.1638C8.45974 12.0203 8.44017 11.8768 8.44017 11.6876C9.90121 12.4116 11.3688 12.5225 12.8624 11.8963Z" fill="#2962FF"/>
<path d="M16.1108 7.06316C16.1108 6.71747 16.1108 6.38482 16.1108 6.04565C16.4891 6.30003 16.4696 6.81531 16.1108 7.06316Z" fill="#2962FF"/>
<path d="M5.70072 7.05008C5.34199 6.80875 5.32894 6.26739 5.70072 6.01953C5.70072 6.37175 5.70072 6.71091 5.70072 7.05008Z" fill="#2962FF"/>
</svg>
