<svg width="20" height="17" viewBox="0 0 20 17" fill="none" xmlns="http://www.w3.org/2000/svg">
<path d="M17.8448 16.7152C12.6166 16.7152 7.38176 16.7152 2.15357 16.7152C2.08068 16.693 2.01441 16.6707 1.94152 16.6485C1.04034 16.3819 0.430713 15.7598 0.119274 14.7674C0.0728899 14.6119 0.0397581 14.4564 0 14.2934C0 9.76101 0 5.22118 0 0.688751C0.21867 0.155524 0.596372 0 1.11323 0C4.26075 0.0148119 7.40827 0.00740581 10.5558 0.00740581C13.3985 0.00740581 16.2478 0.00740581 19.0905 0.00740581C19.6405 0.00740581 19.9983 0.377702 19.9983 0.962771C19.9983 5.31005 20.005 9.66473 19.9917 14.012C19.9917 15.1747 19.2694 16.219 18.2887 16.5745C18.1496 16.6263 17.9972 16.6633 17.8448 16.7152ZM14.9159 5.29524C14.9159 5.08787 14.9226 4.88051 14.9159 4.68055C14.9027 4.13251 14.5515 3.72518 14.0943 3.71778C13.6304 3.71778 13.2726 4.1251 13.266 4.67314C13.2593 5.00641 13.266 5.33227 13.266 5.66553C13.2395 7.51702 11.9672 9.05745 10.2775 9.27963C8.70041 9.48699 7.11671 8.27242 6.75888 6.50981C6.63961 5.92474 6.66611 5.30264 6.63961 4.70276C6.61973 4.13251 6.27516 3.71778 5.79806 3.72518C5.33422 3.73259 4.98965 4.13991 4.97639 4.68795C4.96977 5.02122 4.96977 5.34708 4.97639 5.68035C5.01615 9.33887 8.22993 11.968 11.3642 10.9163C13.3256 10.2572 15.0087 8.14652 14.9159 5.29524Z" fill="#779BFF"/>
</svg>
