<svg width="15" height="15" viewBox="0 0 15 15" fill="none" xmlns="http://www.w3.org/2000/svg">
<path d="M7.5089 15C3.8069 14.9844 0.641555 12.1881 0.0949501 8.33678C-0.292643 5.62888 0.512357 3.3004 2.40063 1.39811C2.91742 0.878358 3.65285 0.89395 4.11995 1.4085C4.58208 1.91266 4.55227 2.69229 4.04044 3.20684C2.87767 4.37628 2.32112 5.8004 2.4056 7.48959C2.51492 9.7609 4.16964 11.8191 6.29146 12.3285C9.13878 13.0093 11.8619 11.2526 12.483 8.27441C12.8855 6.35133 12.3637 4.67254 11.027 3.2848C10.7388 2.98335 10.5351 2.65591 10.555 2.21932C10.5798 1.70476 10.8283 1.33054 11.2755 1.12784C11.7376 0.919938 12.1799 1.0031 12.5575 1.36173C13.3377 2.09977 13.934 2.97295 14.3564 3.98127C16.3341 8.66423 13.5563 14.0436 8.72634 14.8804C8.32384 14.9428 7.91637 14.9584 7.5089 15Z" fill="#439F48"/>
<path d="M8.69653 3.35239C8.69653 4.04366 8.7015 4.73493 8.69653 5.4262C8.68659 5.96154 8.45801 6.36695 7.98594 6.58524C7.53872 6.78794 7.11137 6.72557 6.73372 6.39813C6.44551 6.14865 6.31134 5.81601 6.31134 5.4314C6.30637 4.04366 6.30637 2.65593 6.31134 1.26819C6.31631 0.540541 6.83807 0 7.51387 0C8.17477 0.00519751 8.69156 0.540541 8.7015 1.2578C8.70647 1.95426 8.69653 2.65593 8.69653 3.35239Z" fill="#439F48"/>
</svg>
