<svg width="15" height="14" viewBox="0 0 15 14" fill="none" xmlns="http://www.w3.org/2000/svg">
<path d="M0 11.8956C0 9.32433 0 6.75857 0 4.18726C0.019876 4.19836 0.044721 4.20392 0.064597 4.22058C2.09195 5.73671 4.12427 7.25284 6.15162 8.76897C7.03611 9.42984 7.9504 9.4354 8.83488 8.78007C10.8424 7.28616 12.8449 5.78669 14.8474 4.29277C14.8921 4.25945 14.9318 4.23168 14.9964 4.18726C14.9964 4.24835 14.9964 4.28722 14.9964 4.32054C14.9964 6.76967 14.9964 9.21881 14.9964 11.6679C14.9964 11.8012 14.9815 11.9401 14.9517 12.0734C14.7877 12.7953 14.2461 13.2452 13.5405 13.2452C11.543 13.2452 9.54545 13.2452 7.55288 13.2452C5.52056 13.2452 3.49321 13.2452 1.46089 13.2452C1.06337 13.2452 0.715536 13.1119 0.422365 12.8064C0.188822 12.5454 0.074535 12.2344 0 11.8956Z" fill="#F6953C"/>
<path d="M0 1.98798C0.024845 1.89357 0.044721 1.79916 0.074535 1.70474C0.268326 1.06608 0.780133 0.66067 1.40126 0.649563C1.68946 0.644009 1.97766 0.649563 2.26586 0.649563C6.01746 0.649563 9.77402 0.649563 13.5256 0.649563C13.9629 0.649563 14.3405 0.793956 14.6387 1.16605C15.2002 1.86025 15.0958 2.90432 14.4051 3.42636C13.4958 4.12056 12.5716 4.79809 11.6573 5.48118C10.5641 6.29756 9.47588 7.11394 8.3827 7.92476C7.75661 8.39126 7.2448 8.39126 6.61871 7.92476C4.69571 6.49194 2.7727 5.05356 0.84473 3.62629C0.432303 3.32084 0.09938 2.97652 0 2.4156C0 2.27121 0 2.13237 0 1.98798Z" fill="#F6953C"/>
</svg>
