<svg width="17" height="16" viewBox="0 0 17 16" fill="none" xmlns="http://www.w3.org/2000/svg">
<path d="M16.6752 8.31075C16.5752 8.41075 16.4752 8.61075 16.3752 8.71075C16.1752 9.01075 15.9752 9.21075 15.6752 9.51075C15.3752 9.81075 15.0752 9.81075 14.8752 9.51075C14.5752 9.21075 14.3752 8.91075 14.0752 8.61075C13.9752 8.31075 13.9752 8.11075 14.0752 7.81075C14.2752 7.61075 14.4752 7.61075 14.7752 7.81075V7.71075C14.8752 4.51075 12.6752 1.81075 9.5752 1.21075C7.0752 0.610751 4.8752 1.51075 3.0752 3.61075C2.9752 3.71075 2.8752 3.81075 2.7752 3.91075C2.5752 4.01075 2.3752 3.91075 2.2752 3.71075C2.1752 3.51075 2.1752 3.31075 2.2752 3.11075C2.6752 2.61075 3.0752 2.11075 3.6752 1.71075C5.0752 0.510751 6.7752 -0.089249 8.6752 0.010751C12.0752 0.110751 14.9752 2.61075 15.6752 5.91075C15.7752 6.51075 15.8752 7.01075 15.8752 7.61075C15.8752 7.71075 15.8752 7.71075 15.8752 7.81075C15.9752 7.81075 16.0752 7.71075 16.1752 7.71075C16.3752 7.71075 16.5752 7.81075 16.7752 8.11075C16.6752 8.11075 16.6752 8.21075 16.6752 8.31075Z" fill="#F6953C"/>
<path d="M8.37524 12.5107C8.07524 12.5107 7.77524 12.5107 7.47524 12.5107C7.17524 12.5107 6.97524 12.3107 6.97524 12.0107C6.97524 11.8107 6.97524 11.5107 6.97524 11.3107C6.97524 11.2107 6.97524 11.2107 6.87524 11.1107C6.57524 11.0107 6.37524 10.8107 6.17524 10.7107C6.07524 10.7107 6.07524 10.6107 5.97524 10.7107C5.77524 10.8107 5.57524 10.9107 5.37524 11.0107C5.07524 11.2107 4.77524 11.1107 4.67524 10.8107C4.37524 10.3107 4.07524 9.71074 3.77524 9.21074C3.37524 8.91074 3.47524 8.61074 3.77524 8.41074C3.97524 8.31074 4.17524 8.21074 4.37524 8.11074C4.47524 8.11074 4.47524 8.01074 4.47524 7.91074C4.47524 7.61074 4.47524 7.41074 4.47524 7.11074C4.47524 7.01074 4.47524 6.91074 4.37524 6.91074C4.17524 6.81074 3.97524 6.71074 3.77524 6.61074C3.47524 6.41074 3.37524 6.11074 3.57524 5.81074C3.87524 5.21074 4.17524 4.71074 4.57524 4.11074C4.67524 3.91074 4.97524 3.81074 5.27524 4.01074C5.47524 4.11074 5.67524 4.21074 5.87524 4.31074C5.87524 4.31074 5.97524 4.31074 6.07524 4.31074C6.37524 4.21074 6.57524 4.01074 6.77524 3.91074C6.77524 3.91074 6.87524 3.81074 6.87524 3.71074C6.87524 3.51074 6.87524 3.21074 6.87524 3.01074C6.87524 2.71074 7.07524 2.51074 7.37524 2.51074C8.07524 2.51074 8.67524 2.51074 9.37524 2.51074C9.67524 2.51074 9.87524 2.71074 9.87524 3.01074C9.87524 3.21074 9.87524 3.51074 9.87524 3.71074C9.87524 3.81074 9.97524 3.81074 9.97524 3.91074C10.1752 4.11074 10.4752 4.21074 10.6752 4.31074C10.6752 4.31074 10.7752 4.31074 10.8752 4.31074C11.0752 4.21074 11.2752 4.11074 11.4752 4.01074C11.7752 3.81074 11.9752 3.91074 12.1752 4.21074C12.4752 4.71074 12.7752 5.31074 13.1752 5.91074C13.3752 6.21074 13.2752 6.41074 12.9752 6.61074C12.7752 6.71074 12.5752 6.81074 12.3752 7.01074C12.3752 7.01074 12.2752 7.11074 12.2752 7.21074C12.2752 7.51074 12.2752 7.81074 12.2752 8.11074C12.2752 8.21074 12.2752 8.21074 12.3752 8.31074C12.5752 8.41074 12.7752 8.51074 12.9752 8.61074C13.2752 8.81074 13.3752 9.01074 13.1752 9.31074C12.8752 9.81074 12.5752 10.4107 12.2752 10.9107C12.0752 11.2107 11.8752 11.3107 11.5752 11.1107C11.3752 11.0107 11.1752 10.9107 10.9752 10.8107C10.8752 10.8107 10.8752 10.8107 10.7752 10.8107C10.5752 11.0107 10.2752 11.1107 10.0752 11.2107C9.97524 11.2107 9.97524 11.3107 9.97524 11.4107C9.97524 11.6107 9.97524 11.9107 9.97524 12.1107C9.97524 12.4107 9.77524 12.6107 9.47524 12.6107C8.97524 12.5107 8.67524 12.5107 8.37524 12.5107ZM8.37524 9.01074C9.17524 9.01074 9.87524 8.31074 9.87524 7.51074C9.77524 6.71074 9.17524 6.01074 8.37524 6.01074C7.57524 6.01074 6.87524 6.71074 6.87524 7.51074C6.87524 8.31074 7.57524 9.01074 8.37524 9.01074Z" fill="#F6953C"/>
<path d="M0.875 7.21069C0.775 7.21069 0.675 7.31069 0.475 7.31069C0.275 7.31069 0.175 7.21069 0.075 7.11069C-0.025 6.91069 -0.025 6.71069 0.075 6.61069C0.375 6.21069 0.675 5.91069 0.975 5.61069C1.175 5.41069 1.475 5.41069 1.675 5.61069C1.975 5.91069 2.275 6.31069 2.575 6.61069C2.775 6.81069 2.675 7.01069 2.575 7.21069C2.375 7.31069 2.175 7.41069 1.975 7.31069C1.975 7.31069 1.875 7.31069 1.875 7.21069C1.875 7.61069 1.875 8.01069 1.975 8.41069C2.375 11.1107 3.975 13.0107 6.675 13.8107C9.175 14.6107 11.975 13.6107 13.575 11.4107C13.675 11.3107 13.775 11.1107 13.975 11.1107C14.175 11.1107 14.375 11.1107 14.475 11.3107C14.575 11.5107 14.575 11.7107 14.475 11.9107C14.175 12.4107 13.775 12.8107 13.275 13.2107C11.775 14.5107 10.075 15.1107 8.075 15.0107C4.775 14.9107 1.775 12.4107 1.075 9.11069C0.875 8.61069 0.875 8.01069 0.875 7.41069C0.875 7.31069 0.875 7.31069 0.875 7.21069Z" fill="#F6953C"/>
</svg>
