<svg width="13" height="15" viewBox="0 0 13 15" fill="none" xmlns="http://www.w3.org/2000/svg">
<path d="M1.42141 4.71914C1.40402 3.54963 1.82801 2.41652 2.60886 1.54569C3.38971 0.674865 4.47005 0.130292 5.63453 0.0205305C6.79901 -0.0892309 7.96209 0.243883 8.8919 0.953466C9.82171 1.66305 10.45 2.69698 10.6514 3.84914C10.792 4.77136 10.6815 5.71444 10.3314 6.57914C9.85622 7.80864 9.18038 8.95081 8.33141 9.95914C7.74279 10.6733 7.10096 11.3419 6.41141 11.9591C6.19141 12.1591 6.03141 12.1691 5.82141 11.9591C4.41239 10.7438 3.22185 9.29626 2.30141 7.67914C1.86831 6.91967 1.58327 6.0849 1.46141 5.21914C1.44141 4.98914 1.43141 4.82914 1.42141 4.71914ZM4.28141 4.61914C4.27944 4.97316 4.38249 5.31982 4.57753 5.61527C4.77258 5.91072 5.05085 6.14171 5.37717 6.27901C5.70348 6.41631 6.06319 6.45377 6.41079 6.38664C6.75839 6.31951 7.07829 6.15082 7.33002 5.90188C7.58174 5.65295 7.754 5.33497 7.82501 4.98813C7.89602 4.6413 7.86258 4.2812 7.72894 3.95337C7.59529 3.62554 7.36743 3.3447 7.07417 3.14637C6.78092 2.94804 6.43543 2.84112 6.08141 2.83914C5.60747 2.83911 5.15264 3.02601 4.81564 3.35926C4.47864 3.69251 4.28668 4.14523 4.28141 4.61914Z" fill="#304FFE"/>
<path d="M6.07154 14.9892H0.461538C0.0615385 14.9892 -0.0784615 14.7892 0.0415385 14.4192C0.501538 13.0492 0.961538 11.6792 1.41154 10.3092C1.50154 10.0592 1.59154 9.98915 1.85154 9.98915H2.85154C2.89867 9.98544 2.94593 9.99466 2.98821 10.0158C3.0305 10.0369 3.06623 10.0692 3.09154 10.1092C3.76523 10.9649 4.5077 11.7643 5.31154 12.4992C5.41269 12.6092 5.53558 12.697 5.67242 12.7571C5.80927 12.8171 5.95709 12.8481 6.10654 12.8481C6.25599 12.8481 6.40381 12.8171 6.54065 12.7571C6.6775 12.697 6.80038 12.6092 6.90154 12.4992C7.70769 11.7666 8.45035 10.9671 9.12154 10.1092C9.1469 10.074 9.17983 10.0449 9.21791 10.0242C9.25598 10.0034 9.29823 9.99143 9.34154 9.98915H10.2915C10.3389 9.98058 10.3875 9.98159 10.4344 9.99212C10.4814 10.0027 10.5257 10.0225 10.5649 10.0505C10.604 10.0784 10.6372 10.114 10.6624 10.155C10.6876 10.196 10.7043 10.2416 10.7115 10.2892C11.1815 11.6792 11.6415 13.0692 12.1015 14.4592C12.2115 14.7792 12.1015 14.9892 11.7115 14.9892H6.07154Z" fill="#304FFE"/>
</svg>
