<svg width="15" height="13" viewBox="0 0 15 13" fill="none" xmlns="http://www.w3.org/2000/svg">
<path d="M13.3836 12.5952C9.46244 12.5952 5.53632 12.5952 1.61517 12.5952C1.56051 12.5786 1.51081 12.5619 1.45614 12.5452C0.780253 12.3453 0.323035 11.8787 0.0894558 11.1344C0.0546674 11.0178 0.0298186 10.9011 0 10.7789C0 7.3796 0 3.97472 0 0.575401C0.164002 0.175481 0.447279 0.0588379 0.834921 0.0588379C3.19556 0.0699468 5.5562 0.0643923 7.91684 0.0643923C10.0489 0.0643923 12.1859 0.0643923 14.3179 0.0643923C14.7304 0.0643923 14.9988 0.342115 14.9988 0.780916C14.9988 4.04138 15.0037 7.30739 14.9938 10.5678C14.9938 11.4399 14.4521 12.2231 13.7166 12.4897C13.6122 12.5286 13.4979 12.5563 13.3836 12.5952ZM11.1869 4.03027C11.1869 3.87474 11.1919 3.71922 11.1869 3.56925C11.177 3.15822 10.9136 2.85272 10.5707 2.84717C10.2228 2.84717 9.95444 3.15266 9.94947 3.56369C9.9445 3.81364 9.94947 4.05804 9.94947 4.30799C9.92959 5.6966 8.9754 6.85192 7.70811 7.01856C6.5253 7.17408 5.33753 6.26315 5.06916 4.9412C4.97971 4.50239 4.99959 4.03582 4.97971 3.58591C4.9648 3.15822 4.70637 2.84717 4.34855 2.85272C4.00066 2.85828 3.74223 3.16377 3.7323 3.5748C3.72733 3.82475 3.72733 4.06915 3.7323 4.3191C3.76211 7.06299 6.17245 9.03482 8.52315 8.24609C9.9942 7.75174 11.2565 6.16873 11.1869 4.03027Z" fill="#F6902E"/>
</svg>
