<svg width="15" height="16" viewBox="0 0 15 16" fill="none" xmlns="http://www.w3.org/2000/svg">
<path d="M0 11.19V1.19C0.00990569 1.16082 0.00990569 1.12918 0 1.1C0.0624468 0.783332 0.236284 0.499516 0.49 0.3C0.688982 0.146332 0.922358 0.0433717 1.17 0H6C6.29934 0.0357413 6.5772 0.173634 6.7867 0.390418C6.99619 0.607202 7.12451 0.889609 7.15 1.19C7.25 1.92 7.34 2.66 7.43 3.39L7.82 6.54L8.18 9.54L8.48 11.93C8.48694 11.9889 8.48163 12.0485 8.46441 12.1053C8.44718 12.162 8.41842 12.2145 8.37992 12.2596C8.34142 12.3047 8.29401 12.3413 8.24068 12.3672C8.18734 12.3931 8.12923 12.4076 8.07 12.41H1.4C1.18278 12.42 0.966396 12.3769 0.769526 12.2846C0.572656 12.1923 0.401214 12.0534 0.27 11.88C0.124091 11.676 0.0312979 11.4389 0 11.19ZM4.59 6.65C4.68 7.12 4.77 7.57 4.87 8.02C4.87462 8.08166 4.89217 8.14164 4.92153 8.19606C4.95089 8.25047 4.99138 8.29809 5.04037 8.33581C5.08936 8.37352 5.14575 8.40049 5.20587 8.41495C5.26598 8.42941 5.32847 8.43104 5.38925 8.41973C5.45004 8.40842 5.50776 8.38443 5.55865 8.34931C5.60954 8.3142 5.65246 8.26876 5.68461 8.21595C5.71676 8.16314 5.73742 8.10414 5.74524 8.04281C5.75306 7.98148 5.74787 7.91919 5.73 7.86C5.44 6.42 5.15 5 4.87 3.55C4.85735 3.42697 4.79672 3.31389 4.70125 3.23527C4.60578 3.15665 4.48317 3.11883 4.36 3.13H3.58C3.45683 3.11883 3.33422 3.15665 3.23875 3.23527C3.14328 3.31389 3.08265 3.42697 3.07 3.55C2.87 4.55 2.66 5.55 2.46 6.61C2.38 7.03 2.29 7.45 2.21 7.87C2.19679 7.92717 2.19515 7.9864 2.20518 8.0442C2.2152 8.10201 2.23668 8.15723 2.26836 8.20662C2.30004 8.256 2.34128 8.29855 2.38965 8.33176C2.43801 8.36497 2.49253 8.38817 2.55 8.4C2.66138 8.42374 2.77763 8.40233 2.87324 8.34046C2.96885 8.2786 3.03602 8.18133 3.06 8.07C3.0647 8.00342 3.0647 7.93658 3.06 7.87C3.15 7.46 3.23 7.06 3.31 6.65H4.59Z" fill="#F6902E"/>
<path d="M5.1499 13.25H7.4399L5.9999 14.86C5.2799 14.54 5.1799 13.92 5.1499 13.25Z" fill="#F6902E"/>
<path d="M4.40979 5.76H3.52979L3.86979 4H4.06979L4.40979 5.76Z" fill="#F6902E"/>
<path d="M14.9999 4.08003C14.998 3.94527 14.9812 3.81112 14.9499 3.68003C14.8763 3.38428 14.7027 3.1231 14.4584 2.94082C14.2141 2.75854 13.9143 2.6664 13.6099 2.68003H8.21988C8.21988 2.93003 8.28988 3.17003 8.31988 3.41003L8.79988 7.28003L9.33988 11.62C9.37952 11.8514 9.36395 12.0888 9.29444 12.313C9.22493 12.5371 9.10344 12.7417 8.93988 12.91C8.34988 13.56 7.78988 14.23 7.20988 14.91C7.18075 14.9448 7.15402 14.9816 7.12988 15.02H13.6399C13.8235 15.0259 14.0063 14.9935 14.1767 14.9247C14.347 14.8559 14.5011 14.7522 14.6292 14.6205C14.7572 14.4887 14.8563 14.3316 14.9201 14.1594C14.9839 13.9871 15.0111 13.8034 14.9999 13.62V4.08003ZM14.1799 7.45003H13.5799V10.85H12.8799V9.30003H12.2499C12.2548 9.36661 12.2548 9.43346 12.2499 9.50003C12.2549 9.64143 12.2299 9.78229 12.1765 9.9133C12.123 10.0443 12.0424 10.1625 11.9399 10.26C11.7202 10.4546 11.4329 10.5551 11.1399 10.54C10.9149 10.5483 10.6915 10.5002 10.4899 10.4C10.3074 10.3171 10.1542 10.1812 10.0499 10.01C9.94779 9.83041 9.89598 9.6266 9.89988 9.42003H10.5499C10.5479 9.49022 10.5602 9.56007 10.586 9.62538C10.6118 9.69069 10.6505 9.7501 10.6999 9.80003C10.7513 9.85016 10.8124 9.8893 10.8795 9.91509C10.9465 9.94088 11.0181 9.95276 11.0899 9.95003C11.1943 9.95301 11.2971 9.9245 11.385 9.86821C11.473 9.81192 11.542 9.73046 11.583 9.63443C11.624 9.53841 11.6351 9.43226 11.6149 9.32981C11.5948 9.22736 11.5442 9.13336 11.4699 9.06003C11.4063 9.00368 11.3317 8.96123 11.2507 8.9354C11.1698 8.90957 11.0844 8.90093 10.9999 8.91003H10.7699V8.34003H10.9999C11.1452 8.35141 11.289 8.30465 11.3999 8.21003C11.4474 8.16926 11.4854 8.11861 11.5114 8.06161C11.5373 8.00461 11.5504 7.94264 11.5499 7.88003C11.552 7.81519 11.5406 7.75062 11.5165 7.69038C11.4924 7.63015 11.4561 7.57555 11.4099 7.53003C11.3124 7.44763 11.1875 7.40481 11.0599 7.41003C10.9296 7.40692 10.8023 7.44936 10.6999 7.53003C10.6544 7.57403 10.6185 7.62694 10.5944 7.68544C10.5703 7.74394 10.5586 7.80678 10.5599 7.87003H9.99988C9.99728 7.67439 10.0455 7.48143 10.1399 7.31003C10.2391 7.15066 10.3812 7.02243 10.5499 6.94003C10.7345 6.85365 10.936 6.80926 11.1399 6.81003C11.431 6.79634 11.7166 6.89273 11.9399 7.08003C12.0415 7.16534 12.1223 7.27277 12.176 7.3941C12.2297 7.51543 12.255 7.64744 12.2499 7.78003C12.2581 7.96663 12.2016 8.15033 12.0899 8.30003C11.9801 8.44565 11.8255 8.55108 11.6499 8.60003C11.7466 8.62292 11.8381 8.66362 11.9199 8.72003H12.9199V6.86003H14.2199L14.1799 7.45003Z" fill="#F6902E"/>
</svg>
