<svg width="15" height="21" viewBox="0 0 15 21" fill="none" xmlns="http://www.w3.org/2000/svg">
<path d="M12.3307 0.941162C12.5354 0.998372 12.7402 1.04287 12.9392 1.11279C14.2474 1.60225 15.0891 3.00706 14.9924 4.52629C14.8901 6.06458 13.8663 7.34226 12.5013 7.59652C11.6084 7.7618 10.8064 7.51389 10.1012 6.88458C10.0386 6.83373 9.98176 6.77017 9.91919 6.71296C8.85563 7.45032 7.79207 8.18769 6.72283 8.93141C6.89914 9.42723 7.00151 9.93575 7.00151 10.4697C7.00151 11.0037 6.90483 11.5122 6.71714 12.0207C7.78639 12.7644 8.84995 13.5018 9.91351 14.2328C11.2273 12.8916 13.0473 13.095 14.1109 14.2773C15.1687 15.4533 15.2996 17.3094 14.4123 18.6507C13.5251 19.9919 11.8928 20.3987 10.5846 19.6169C9.29926 18.8477 8.53713 16.9725 9.32201 15.1418C8.28689 14.4235 7.25176 13.7052 6.20526 12.9806C5.39764 13.9786 4.40233 14.4807 3.19658 14.3663C2.24109 14.2773 1.44484 13.8069 0.824901 12.9869C-0.380846 11.3914 -0.250034 9.03312 1.12065 7.60924C2.51977 6.15358 4.81183 6.17265 6.19958 7.97156C7.2347 7.25327 8.26982 6.53497 9.29926 5.82939C9.21963 5.52427 9.11726 5.24458 9.06607 4.95218C8.71913 3.07062 9.87369 1.24628 11.5799 0.979302C11.6084 0.972945 11.6425 0.953875 11.6709 0.947519C11.8871 0.941162 12.1089 0.941162 12.3307 0.941162Z" fill="#F34336"/>
</svg>
