<svg width="15" height="15" viewBox="0 0 15 15" fill="none" xmlns="http://www.w3.org/2000/svg">
<path d="M7.49393 14.9065C5.88383 14.9065 4.26876 14.9115 2.65865 14.9065C1.30696 14.9015 0.248472 14.0021 0.0248472 12.6653C0.00496945 12.5212 0 12.3721 0 12.223C0 10.1607 0 8.09835 0 6.03106C0 5.05208 0.407495 4.29672 1.21255 3.74511C2.78289 2.67668 4.35324 1.59831 5.92358 0.524913C6.93735 -0.17081 8.0505 -0.175779 9.0593 0.514974C10.6396 1.59334 12.2199 2.67668 13.8002 3.76002C14.5903 4.30169 14.9978 5.05208 14.9978 6.01615C14.9978 8.09338 15.0028 10.1656 14.9978 12.2429C14.9928 13.6045 14.1033 14.6531 12.7665 14.8816C12.6075 14.9065 12.4385 14.9115 12.2745 14.9115C10.6793 14.9065 9.08912 14.9065 7.49393 14.9065ZM7.4989 12.2826C8.07038 12.2826 8.64684 12.2826 9.21832 12.2826C9.27299 12.2826 9.32268 12.2826 9.37735 12.2777C9.60097 12.2578 9.74509 12.1087 9.75006 11.9099C9.75502 11.7012 9.60097 11.5471 9.37238 11.5273C9.33262 11.5223 9.29287 11.5273 9.24814 11.5273C8.08529 11.5273 6.91747 11.5273 5.75462 11.5273C5.7099 11.5273 5.6602 11.5273 5.61548 11.5322C5.39682 11.5571 5.25271 11.7111 5.25271 11.9099C5.25271 12.1137 5.40179 12.2627 5.62045 12.2826C5.67511 12.2876 5.7248 12.2876 5.77947 12.2876C6.35095 12.2826 6.92741 12.2826 7.4989 12.2826Z" fill="#304FFE"/>
</svg>
