<svg width="18" height="21" viewBox="0 0 18 21" fill="none" xmlns="http://www.w3.org/2000/svg">
<g clip-path="url(#clip0_146_622)">
<path d="M0.443325 20.5064C0.0854615 20.3409 -0.00533967 20.0579 1.58008e-06 19.6787C0.0694378 15.9993 2.87359 12.7258 6.48962 12.133C6.93828 12.0583 7.40297 12.0262 7.86232 12.0155C8.67418 11.9995 9.48605 11.9888 10.2979 12.0155C13.3798 12.1277 15.6338 13.5962 17.1134 16.277C17.6955 17.3344 17.9466 18.4878 18 19.6894C18.016 20.0632 17.9039 20.3355 17.5567 20.4958C11.8522 20.5064 6.14778 20.5064 0.443325 20.5064Z" fill="#779BFF"/>
<path d="M9.43798 0C9.84391 0.0907832 10.2659 0.144185 10.6611 0.27235C13.0113 1.02532 14.5763 3.3483 14.3893 5.75138C14.1863 8.31468 12.349 10.3386 9.86528 10.7445C6.7994 11.2411 3.94718 9.05162 3.63205 5.95431C3.33294 3.00653 5.47477 0.347112 8.40712 0.0373813C8.46053 0.0320411 8.5086 0.0160206 8.56202 0C8.85044 0 9.14421 0 9.43798 0Z" fill="#779BFF"/>
</g>
<defs>
<clipPath id="clip0_146_622">
<rect width="18" height="20.5063" fill="white"/>
</clipPath>
</defs>
</svg>
