<svg width="16" height="15" viewBox="0 0 16 15" fill="none" xmlns="http://www.w3.org/2000/svg">
<path d="M2.26227 3.75194H0.862274C0.759178 3.76185 0.65537 3.76185 0.552274 3.75194C0.37161 3.70456 0.215545 3.59061 0.11539 3.43296C0.0152358 3.27531 -0.0215997 3.08562 0.0122742 2.90194C0.0336134 2.72938 0.115847 2.5701 0.244174 2.45277C0.372501 2.33544 0.538494 2.26777 0.712274 2.26194H14.1323C14.2551 2.24667 14.3794 2.24667 14.5023 2.26194C14.6707 2.31502 14.8142 2.42736 14.9061 2.57814C14.998 2.72891 15.0322 2.9079 15.0023 3.08194C14.9807 3.25351 14.8981 3.41158 14.7696 3.52726C14.641 3.64293 14.4752 3.70849 14.3023 3.71194H12.7623V12.6519C12.7691 13.0593 12.6647 13.4608 12.4603 13.8132C12.2559 14.1656 11.9592 14.4556 11.6023 14.6519C11.2444 14.8483 10.8403 14.945 10.4323 14.9319H4.58227C4.2746 14.9431 3.96791 14.8908 3.68137 14.7782C3.39483 14.6655 3.13458 14.495 2.91687 14.2773C2.69917 14.0596 2.52868 13.7994 2.41605 13.5128C2.30342 13.2263 2.25107 12.9196 2.26227 12.6119V3.75194ZM6.76227 8.64194V7.43194C6.77715 7.16882 6.77715 6.90506 6.76227 6.64194C6.7376 6.46264 6.6472 6.29889 6.50862 6.18248C6.37003 6.06607 6.19314 6.00529 6.01227 6.01194C5.82122 6.01709 5.63956 6.09596 5.50535 6.23203C5.37114 6.36811 5.29479 6.55083 5.29227 6.74194V10.5319C5.29148 10.6407 5.31644 10.7482 5.3651 10.8455C5.41376 10.9429 5.48475 11.0273 5.57227 11.0919C5.68084 11.1862 5.81544 11.2452 5.95829 11.2613C6.10113 11.2774 6.24549 11.2497 6.37227 11.1819C6.50571 11.1197 6.61722 11.0187 6.69218 10.892C6.76713 10.7652 6.80202 10.6188 6.79227 10.4719L6.76227 8.64194ZM9.76227 8.64194C9.76227 8.03194 9.76227 7.41194 9.76227 6.80194C9.75808 6.63825 9.71707 6.4776 9.64227 6.33194C9.55803 6.19253 9.42958 6.0853 9.27737 6.02732C9.12515 5.96933 8.95792 5.96392 8.80227 6.01194C8.63875 6.05747 8.49585 6.15784 8.39754 6.29621C8.29922 6.43458 8.25147 6.60254 8.26227 6.77194V10.4419C8.26344 10.5406 8.28032 10.6385 8.31227 10.7319C8.37403 10.8934 8.48968 11.0286 8.63965 11.1146C8.78962 11.2006 8.9647 11.2322 9.13526 11.204C9.30583 11.1757 9.4614 11.0894 9.57566 10.9597C9.68992 10.8299 9.75584 10.6647 9.76227 10.4919V8.64194Z" fill="#F34336"/>
<path d="M7.50217 1.50188C6.99217 1.50188 6.50217 1.50188 5.97217 1.50188C5.79575 1.49602 5.62724 1.42729 5.49704 1.3081C5.36684 1.18891 5.28354 1.0271 5.26217 0.851879C5.23335 0.669988 5.27246 0.483853 5.37205 0.328942C5.47163 0.174031 5.62473 0.0611745 5.80217 0.0118788C5.87128 -0.00395961 5.94307 -0.00395961 6.01217 0.0118788L9.01217 0.0118788C9.18948 0.0200855 9.35813 0.0909098 9.48813 0.211757C9.61813 0.332605 9.70106 0.495643 9.72217 0.671879C9.74072 0.847456 9.69674 1.02395 9.59796 1.17029C9.49918 1.31662 9.35195 1.42342 9.18217 1.47188C9.08274 1.48696 8.9816 1.48696 8.88217 1.47188C8.41217 1.47188 7.94217 1.47188 7.46217 1.47188L7.50217 1.50188Z" fill="#F34336"/>
</svg>
