<svg width="25" height="15" viewBox="0 0 25 15" fill="none" xmlns="http://www.w3.org/2000/svg">
<path d="M0 2.36231C0.127092 1.90076 0.267563 1.44591 0.575259 1.06463C1.09701 0.415792 1.76591 0.0412046 2.60873 0.0144484C3.18399 -0.00561881 3.75925 0.00107025 4.3412 0.00107025C7.56533 0.00107025 10.7828 0.00107025 14.0069 0.00107025C15.2109 0.00107025 16.1206 0.509439 16.6223 1.60645C16.7895 1.98103 16.8698 2.42251 16.8698 2.83723C16.8899 5.84062 16.8832 8.84401 16.8765 11.8407C16.8765 13.2789 15.9735 14.3826 14.6089 14.6367C14.4016 14.6769 14.1875 14.6769 13.9801 14.6769C10.2878 14.6769 6.59542 14.6769 2.90305 14.6769C1.38464 14.6769 0.367898 13.8541 0.0401344 12.3758C0.0334453 12.3558 0.0133781 12.3357 0 12.3156C0 9.00455 0 5.68677 0 2.36231Z" fill="white"/>
<path d="M24.9972 7.33891C24.9972 8.73692 25.0039 10.1349 24.9972 11.5396C24.9905 12.6567 23.9537 13.426 22.9035 13.1116C22.7296 13.0581 22.5557 12.9711 22.3951 12.8775C21.0841 12.1283 19.773 11.3724 18.4553 10.6299C18.3014 10.543 18.2412 10.4493 18.2412 10.2687C18.2479 8.30882 18.2479 6.34893 18.2412 4.38234C18.2412 4.24856 18.2479 4.14154 18.3951 4.06127C19.7797 3.27196 21.151 2.46258 22.5423 1.67996C23.4787 1.15153 24.6025 1.61307 24.9236 2.6365C24.9838 2.82379 24.9972 3.03784 24.9972 3.23851C24.9972 4.60308 24.9972 5.97434 24.9972 7.33891Z" fill="white"/>
</svg>
