<svg width="19" height="17" viewBox="0 0 19 17" fill="none" xmlns="http://www.w3.org/2000/svg">
<path d="M18.7312 6.68912C17.5989 6.68912 16.4978 6.68577 15.3984 6.68912C13.787 6.69526 12.4475 7.78796 12.1102 9.36923C11.6819 11.3743 13.2398 13.3447 15.2895 13.3749C16.3554 13.3905 17.4213 13.3788 18.4872 13.3793H18.6955C18.6955 14.0589 18.7513 14.7233 18.681 15.3744C18.5966 16.1365 17.8914 16.6949 17.1215 16.72C17.0729 16.72 17.0237 16.72 16.9752 16.72C12.2236 16.72 7.47212 16.72 2.72087 16.72C1.42269 16.72 0.35679 15.8791 0.070353 14.6301C0.0251618 14.4264 0.00269028 14.2184 0.00335014 14.0097C0.00111671 10.2423 0 6.47415 0 2.70524C0.00279179 1.18428 1.18316 0.00279178 2.70524 0C6.79465 0 10.8842 0 14.974 0C15.6005 0 16.0533 0.42156 16.055 1.00002C16.0567 1.57847 15.6033 2.00506 14.9796 2.00506C10.9323 2.00841 6.88454 2.01009 2.83645 2.01009C2.74589 2.00596 2.65514 2.00914 2.56509 2.01958C2.40627 2.05004 2.26382 2.13692 2.16404 2.26418C2.06425 2.39144 2.01386 2.55049 2.02216 2.712C2.03046 2.8735 2.09689 3.02656 2.2092 3.14292C2.3215 3.25928 2.4721 3.3311 2.63321 3.34512C2.70971 3.3507 2.78676 3.34512 2.86325 3.34512H16.9087C18.0394 3.34512 18.7306 4.0358 18.7312 5.16592C18.7318 5.66565 18.7312 6.16594 18.7312 6.68912Z" fill="#779BFF"/>
<path d="M18.7144 12.0392C17.5899 12.0392 16.476 12.0392 15.3643 12.0392C15.2601 12.0373 15.1563 12.0266 15.0538 12.0074C14.5606 11.9256 14.1158 11.6622 13.8069 11.2691C13.4979 10.8759 13.3472 10.3815 13.3844 9.88285C13.4564 8.86944 14.3101 8.04586 15.333 8.03358C16.4548 8.01962 17.5765 8.03023 18.7144 8.03023V12.0392Z" fill="#779BFF"/>
</svg>
